%TF.GenerationSoftware,KiCad,Pcbnew,6.0.11-2627ca5db0~126~ubuntu20.04.1*%
%TF.CreationDate,2023-07-28T13:12:42-03:00*%
%TF.ProjectId,PEF,5045462e-6b69-4636-9164-5f7063625858,rev?*%
%TF.SameCoordinates,Original*%
%TF.FileFunction,Drillmap*%
%TF.FilePolarity,Positive*%
%FSLAX45Y45*%
G04 Gerber Fmt 4.5, Leading zero omitted, Abs format (unit mm)*
G04 Created by KiCad (PCBNEW 6.0.11-2627ca5db0~126~ubuntu20.04.1) date 2023-07-28 13:12:42*
%MOMM*%
%LPD*%
G01*
G04 APERTURE LIST*
%ADD10C,0.200000*%
%ADD11C,0.500000*%
G04 APERTURE END LIST*
D10*
X1240000Y-1240000D02*
X9400000Y-1240000D01*
X9400000Y-1240000D02*
X9400000Y-9340000D01*
X9400000Y-9340000D02*
X1240000Y-9340000D01*
X1240000Y-9340000D02*
X1240000Y-1240000D01*
D11*
X1530000Y-1550000D02*
X2030000Y-2050000D01*
X2030000Y-1550000D02*
X1530000Y-2050000D01*
X8590000Y-1570000D02*
X9090000Y-2070000D01*
X9090000Y-1570000D02*
X8590000Y-2070000D01*
X8600000Y-8470000D02*
X9100000Y-8970000D01*
X9100000Y-8470000D02*
X8600000Y-8970000D01*
D10*
X1487619Y-9660476D02*
X1487619Y-9460476D01*
X1535238Y-9460476D01*
X1563809Y-9470000D01*
X1582857Y-9489048D01*
X1592381Y-9508095D01*
X1601905Y-9546190D01*
X1601905Y-9574762D01*
X1592381Y-9612857D01*
X1582857Y-9631905D01*
X1563809Y-9650952D01*
X1535238Y-9660476D01*
X1487619Y-9660476D01*
X1687619Y-9660476D02*
X1687619Y-9527143D01*
X1687619Y-9565238D02*
X1697143Y-9546190D01*
X1706667Y-9536667D01*
X1725714Y-9527143D01*
X1744762Y-9527143D01*
X1811428Y-9660476D02*
X1811428Y-9527143D01*
X1811428Y-9460476D02*
X1801905Y-9470000D01*
X1811428Y-9479524D01*
X1820952Y-9470000D01*
X1811428Y-9460476D01*
X1811428Y-9479524D01*
X1935238Y-9660476D02*
X1916190Y-9650952D01*
X1906667Y-9631905D01*
X1906667Y-9460476D01*
X2040000Y-9660476D02*
X2020952Y-9650952D01*
X2011428Y-9631905D01*
X2011428Y-9460476D01*
X2268571Y-9660476D02*
X2268571Y-9460476D01*
X2335238Y-9603333D01*
X2401905Y-9460476D01*
X2401905Y-9660476D01*
X2582857Y-9660476D02*
X2582857Y-9555714D01*
X2573333Y-9536667D01*
X2554286Y-9527143D01*
X2516190Y-9527143D01*
X2497143Y-9536667D01*
X2582857Y-9650952D02*
X2563810Y-9660476D01*
X2516190Y-9660476D01*
X2497143Y-9650952D01*
X2487619Y-9631905D01*
X2487619Y-9612857D01*
X2497143Y-9593810D01*
X2516190Y-9584286D01*
X2563810Y-9584286D01*
X2582857Y-9574762D01*
X2678095Y-9527143D02*
X2678095Y-9727143D01*
X2678095Y-9536667D02*
X2697143Y-9527143D01*
X2735238Y-9527143D01*
X2754286Y-9536667D01*
X2763810Y-9546190D01*
X2773333Y-9565238D01*
X2773333Y-9622381D01*
X2763810Y-9641429D01*
X2754286Y-9650952D01*
X2735238Y-9660476D01*
X2697143Y-9660476D01*
X2678095Y-9650952D01*
X2859048Y-9641429D02*
X2868571Y-9650952D01*
X2859048Y-9660476D01*
X2849524Y-9650952D01*
X2859048Y-9641429D01*
X2859048Y-9660476D01*
X2859048Y-9536667D02*
X2868571Y-9546190D01*
X2859048Y-9555714D01*
X2849524Y-9546190D01*
X2859048Y-9536667D01*
X2859048Y-9555714D01*
X1030000Y-9890000D02*
X1230000Y-10090000D01*
X1230000Y-9890000D02*
X1030000Y-10090000D01*
X1582857Y-9880476D02*
X1487619Y-9880476D01*
X1478095Y-9975714D01*
X1487619Y-9966190D01*
X1506667Y-9956667D01*
X1554286Y-9956667D01*
X1573333Y-9966190D01*
X1582857Y-9975714D01*
X1592381Y-9994762D01*
X1592381Y-10042381D01*
X1582857Y-10061429D01*
X1573333Y-10070952D01*
X1554286Y-10080476D01*
X1506667Y-10080476D01*
X1487619Y-10070952D01*
X1478095Y-10061429D01*
X1678095Y-10061429D02*
X1687619Y-10070952D01*
X1678095Y-10080476D01*
X1668571Y-10070952D01*
X1678095Y-10061429D01*
X1678095Y-10080476D01*
X1811428Y-9880476D02*
X1830476Y-9880476D01*
X1849524Y-9890000D01*
X1859048Y-9899524D01*
X1868571Y-9918571D01*
X1878095Y-9956667D01*
X1878095Y-10004286D01*
X1868571Y-10042381D01*
X1859048Y-10061429D01*
X1849524Y-10070952D01*
X1830476Y-10080476D01*
X1811428Y-10080476D01*
X1792381Y-10070952D01*
X1782857Y-10061429D01*
X1773333Y-10042381D01*
X1763809Y-10004286D01*
X1763809Y-9956667D01*
X1773333Y-9918571D01*
X1782857Y-9899524D01*
X1792381Y-9890000D01*
X1811428Y-9880476D01*
X2001905Y-9880476D02*
X2020952Y-9880476D01*
X2040000Y-9890000D01*
X2049524Y-9899524D01*
X2059048Y-9918571D01*
X2068571Y-9956667D01*
X2068571Y-10004286D01*
X2059048Y-10042381D01*
X2049524Y-10061429D01*
X2040000Y-10070952D01*
X2020952Y-10080476D01*
X2001905Y-10080476D01*
X1982857Y-10070952D01*
X1973333Y-10061429D01*
X1963809Y-10042381D01*
X1954286Y-10004286D01*
X1954286Y-9956667D01*
X1963809Y-9918571D01*
X1973333Y-9899524D01*
X1982857Y-9890000D01*
X2001905Y-9880476D01*
X2192381Y-9880476D02*
X2211429Y-9880476D01*
X2230476Y-9890000D01*
X2240000Y-9899524D01*
X2249524Y-9918571D01*
X2259048Y-9956667D01*
X2259048Y-10004286D01*
X2249524Y-10042381D01*
X2240000Y-10061429D01*
X2230476Y-10070952D01*
X2211429Y-10080476D01*
X2192381Y-10080476D01*
X2173333Y-10070952D01*
X2163810Y-10061429D01*
X2154286Y-10042381D01*
X2144762Y-10004286D01*
X2144762Y-9956667D01*
X2154286Y-9918571D01*
X2163810Y-9899524D01*
X2173333Y-9890000D01*
X2192381Y-9880476D01*
X2344762Y-10080476D02*
X2344762Y-9947143D01*
X2344762Y-9966190D02*
X2354286Y-9956667D01*
X2373333Y-9947143D01*
X2401905Y-9947143D01*
X2420952Y-9956667D01*
X2430476Y-9975714D01*
X2430476Y-10080476D01*
X2430476Y-9975714D02*
X2440000Y-9956667D01*
X2459048Y-9947143D01*
X2487619Y-9947143D01*
X2506667Y-9956667D01*
X2516190Y-9975714D01*
X2516190Y-10080476D01*
X2611429Y-10080476D02*
X2611429Y-9947143D01*
X2611429Y-9966190D02*
X2620952Y-9956667D01*
X2640000Y-9947143D01*
X2668571Y-9947143D01*
X2687619Y-9956667D01*
X2697143Y-9975714D01*
X2697143Y-10080476D01*
X2697143Y-9975714D02*
X2706667Y-9956667D01*
X2725714Y-9947143D01*
X2754286Y-9947143D01*
X2773333Y-9956667D01*
X2782857Y-9975714D01*
X2782857Y-10080476D01*
X3173333Y-9870952D02*
X3001905Y-10128095D01*
X3430476Y-9880476D02*
X3449524Y-9880476D01*
X3468571Y-9890000D01*
X3478095Y-9899524D01*
X3487619Y-9918571D01*
X3497143Y-9956667D01*
X3497143Y-10004286D01*
X3487619Y-10042381D01*
X3478095Y-10061429D01*
X3468571Y-10070952D01*
X3449524Y-10080476D01*
X3430476Y-10080476D01*
X3411428Y-10070952D01*
X3401905Y-10061429D01*
X3392381Y-10042381D01*
X3382857Y-10004286D01*
X3382857Y-9956667D01*
X3392381Y-9918571D01*
X3401905Y-9899524D01*
X3411428Y-9890000D01*
X3430476Y-9880476D01*
X3582857Y-10061429D02*
X3592381Y-10070952D01*
X3582857Y-10080476D01*
X3573333Y-10070952D01*
X3582857Y-10061429D01*
X3582857Y-10080476D01*
X3782857Y-10080476D02*
X3668571Y-10080476D01*
X3725714Y-10080476D02*
X3725714Y-9880476D01*
X3706667Y-9909048D01*
X3687619Y-9928095D01*
X3668571Y-9937619D01*
X3878095Y-10080476D02*
X3916190Y-10080476D01*
X3935238Y-10070952D01*
X3944762Y-10061429D01*
X3963809Y-10032857D01*
X3973333Y-9994762D01*
X3973333Y-9918571D01*
X3963809Y-9899524D01*
X3954286Y-9890000D01*
X3935238Y-9880476D01*
X3897143Y-9880476D01*
X3878095Y-9890000D01*
X3868571Y-9899524D01*
X3859048Y-9918571D01*
X3859048Y-9966190D01*
X3868571Y-9985238D01*
X3878095Y-9994762D01*
X3897143Y-10004286D01*
X3935238Y-10004286D01*
X3954286Y-9994762D01*
X3963809Y-9985238D01*
X3973333Y-9966190D01*
X4144762Y-9880476D02*
X4106667Y-9880476D01*
X4087619Y-9890000D01*
X4078095Y-9899524D01*
X4059048Y-9928095D01*
X4049524Y-9966190D01*
X4049524Y-10042381D01*
X4059048Y-10061429D01*
X4068571Y-10070952D01*
X4087619Y-10080476D01*
X4125714Y-10080476D01*
X4144762Y-10070952D01*
X4154286Y-10061429D01*
X4163809Y-10042381D01*
X4163809Y-9994762D01*
X4154286Y-9975714D01*
X4144762Y-9966190D01*
X4125714Y-9956667D01*
X4087619Y-9956667D01*
X4068571Y-9966190D01*
X4059048Y-9975714D01*
X4049524Y-9994762D01*
X4259048Y-10080476D02*
X4297143Y-10080476D01*
X4316190Y-10070952D01*
X4325714Y-10061429D01*
X4344762Y-10032857D01*
X4354286Y-9994762D01*
X4354286Y-9918571D01*
X4344762Y-9899524D01*
X4335238Y-9890000D01*
X4316190Y-9880476D01*
X4278095Y-9880476D01*
X4259048Y-9890000D01*
X4249524Y-9899524D01*
X4240000Y-9918571D01*
X4240000Y-9966190D01*
X4249524Y-9985238D01*
X4259048Y-9994762D01*
X4278095Y-10004286D01*
X4316190Y-10004286D01*
X4335238Y-9994762D01*
X4344762Y-9985238D01*
X4354286Y-9966190D01*
X4430476Y-9880476D02*
X4430476Y-9918571D01*
X4506667Y-9880476D02*
X4506667Y-9918571D01*
X4801905Y-10156667D02*
X4792381Y-10147143D01*
X4773333Y-10118571D01*
X4763810Y-10099524D01*
X4754286Y-10070952D01*
X4744762Y-10023333D01*
X4744762Y-9985238D01*
X4754286Y-9937619D01*
X4763810Y-9909048D01*
X4773333Y-9890000D01*
X4792381Y-9861429D01*
X4801905Y-9851905D01*
X4859048Y-9880476D02*
X4982857Y-9880476D01*
X4916190Y-9956667D01*
X4944762Y-9956667D01*
X4963810Y-9966190D01*
X4973333Y-9975714D01*
X4982857Y-9994762D01*
X4982857Y-10042381D01*
X4973333Y-10061429D01*
X4963810Y-10070952D01*
X4944762Y-10080476D01*
X4887619Y-10080476D01*
X4868571Y-10070952D01*
X4859048Y-10061429D01*
X5220952Y-10080476D02*
X5220952Y-9880476D01*
X5306667Y-10080476D02*
X5306667Y-9975714D01*
X5297143Y-9956667D01*
X5278095Y-9947143D01*
X5249524Y-9947143D01*
X5230476Y-9956667D01*
X5220952Y-9966190D01*
X5430476Y-10080476D02*
X5411429Y-10070952D01*
X5401905Y-10061429D01*
X5392381Y-10042381D01*
X5392381Y-9985238D01*
X5401905Y-9966190D01*
X5411429Y-9956667D01*
X5430476Y-9947143D01*
X5459048Y-9947143D01*
X5478095Y-9956667D01*
X5487619Y-9966190D01*
X5497143Y-9985238D01*
X5497143Y-10042381D01*
X5487619Y-10061429D01*
X5478095Y-10070952D01*
X5459048Y-10080476D01*
X5430476Y-10080476D01*
X5611428Y-10080476D02*
X5592381Y-10070952D01*
X5582857Y-10051905D01*
X5582857Y-9880476D01*
X5763809Y-10070952D02*
X5744762Y-10080476D01*
X5706667Y-10080476D01*
X5687619Y-10070952D01*
X5678095Y-10051905D01*
X5678095Y-9975714D01*
X5687619Y-9956667D01*
X5706667Y-9947143D01*
X5744762Y-9947143D01*
X5763809Y-9956667D01*
X5773333Y-9975714D01*
X5773333Y-9994762D01*
X5678095Y-10013810D01*
X5849524Y-10070952D02*
X5868571Y-10080476D01*
X5906667Y-10080476D01*
X5925714Y-10070952D01*
X5935238Y-10051905D01*
X5935238Y-10042381D01*
X5925714Y-10023333D01*
X5906667Y-10013810D01*
X5878095Y-10013810D01*
X5859048Y-10004286D01*
X5849524Y-9985238D01*
X5849524Y-9975714D01*
X5859048Y-9956667D01*
X5878095Y-9947143D01*
X5906667Y-9947143D01*
X5925714Y-9956667D01*
X6001905Y-10156667D02*
X6011428Y-10147143D01*
X6030476Y-10118571D01*
X6040000Y-10099524D01*
X6049524Y-10070952D01*
X6059048Y-10023333D01*
X6059048Y-9985238D01*
X6049524Y-9937619D01*
X6040000Y-9909048D01*
X6030476Y-9890000D01*
X6011428Y-9861429D01*
X6001905Y-9851905D01*
X6363809Y-10156667D02*
X6354286Y-10147143D01*
X6335238Y-10118571D01*
X6325714Y-10099524D01*
X6316190Y-10070952D01*
X6306667Y-10023333D01*
X6306667Y-9985238D01*
X6316190Y-9937619D01*
X6325714Y-9909048D01*
X6335238Y-9890000D01*
X6354286Y-9861429D01*
X6363809Y-9851905D01*
X6440000Y-9947143D02*
X6440000Y-10080476D01*
X6440000Y-9966190D02*
X6449524Y-9956667D01*
X6468571Y-9947143D01*
X6497143Y-9947143D01*
X6516190Y-9956667D01*
X6525714Y-9975714D01*
X6525714Y-10080476D01*
X6649524Y-10080476D02*
X6630476Y-10070952D01*
X6620952Y-10061429D01*
X6611428Y-10042381D01*
X6611428Y-9985238D01*
X6620952Y-9966190D01*
X6630476Y-9956667D01*
X6649524Y-9947143D01*
X6678095Y-9947143D01*
X6697143Y-9956667D01*
X6706667Y-9966190D01*
X6716190Y-9985238D01*
X6716190Y-10042381D01*
X6706667Y-10061429D01*
X6697143Y-10070952D01*
X6678095Y-10080476D01*
X6649524Y-10080476D01*
X6773333Y-9947143D02*
X6849524Y-9947143D01*
X6801905Y-9880476D02*
X6801905Y-10051905D01*
X6811428Y-10070952D01*
X6830476Y-10080476D01*
X6849524Y-10080476D01*
X7068571Y-9947143D02*
X7068571Y-10147143D01*
X7068571Y-9956667D02*
X7087619Y-9947143D01*
X7125714Y-9947143D01*
X7144762Y-9956667D01*
X7154286Y-9966190D01*
X7163809Y-9985238D01*
X7163809Y-10042381D01*
X7154286Y-10061429D01*
X7144762Y-10070952D01*
X7125714Y-10080476D01*
X7087619Y-10080476D01*
X7068571Y-10070952D01*
X7278095Y-10080476D02*
X7259048Y-10070952D01*
X7249524Y-10051905D01*
X7249524Y-9880476D01*
X7440000Y-10080476D02*
X7440000Y-9975714D01*
X7430476Y-9956667D01*
X7411428Y-9947143D01*
X7373333Y-9947143D01*
X7354286Y-9956667D01*
X7440000Y-10070952D02*
X7420952Y-10080476D01*
X7373333Y-10080476D01*
X7354286Y-10070952D01*
X7344762Y-10051905D01*
X7344762Y-10032857D01*
X7354286Y-10013810D01*
X7373333Y-10004286D01*
X7420952Y-10004286D01*
X7440000Y-9994762D01*
X7506667Y-9947143D02*
X7582857Y-9947143D01*
X7535238Y-9880476D02*
X7535238Y-10051905D01*
X7544762Y-10070952D01*
X7563809Y-10080476D01*
X7582857Y-10080476D01*
X7725714Y-10070952D02*
X7706667Y-10080476D01*
X7668571Y-10080476D01*
X7649524Y-10070952D01*
X7640000Y-10051905D01*
X7640000Y-9975714D01*
X7649524Y-9956667D01*
X7668571Y-9947143D01*
X7706667Y-9947143D01*
X7725714Y-9956667D01*
X7735238Y-9975714D01*
X7735238Y-9994762D01*
X7640000Y-10013810D01*
X7906667Y-10080476D02*
X7906667Y-9880476D01*
X7906667Y-10070952D02*
X7887619Y-10080476D01*
X7849524Y-10080476D01*
X7830476Y-10070952D01*
X7820952Y-10061429D01*
X7811428Y-10042381D01*
X7811428Y-9985238D01*
X7820952Y-9966190D01*
X7830476Y-9956667D01*
X7849524Y-9947143D01*
X7887619Y-9947143D01*
X7906667Y-9956667D01*
X7982857Y-10156667D02*
X7992381Y-10147143D01*
X8011428Y-10118571D01*
X8020952Y-10099524D01*
X8030476Y-10070952D01*
X8040000Y-10023333D01*
X8040000Y-9985238D01*
X8030476Y-9937619D01*
X8020952Y-9909048D01*
X8011428Y-9890000D01*
X7992381Y-9861429D01*
X7982857Y-9851905D01*
M02*
