M48
; DRILL file {KiCad 6.0.11-2627ca5db0~126~ubuntu20.04.1} date vie 28 jul 2023 13:12:45
; FORMAT={-:-/ absolute / inch / decimal}
; #@! TF.CreationDate,2023-07-28T13:12:45-03:00
; #@! TF.GenerationSoftware,Kicad,Pcbnew,6.0.11-2627ca5db0~126~ubuntu20.04.1
; #@! TF.FileFunction,Plated,1,2,PTH
FMAT,2
INCH
; #@! TA.AperFunction,Plated,PTH,ComponentDrill
T1C0.0295
; #@! TA.AperFunction,Plated,PTH,ComponentDrill
T2C0.0315
; #@! TA.AperFunction,Plated,PTH,ComponentDrill
T3C0.0394
; #@! TA.AperFunction,Plated,PTH,ComponentDrill
T4C0.0433
; #@! TA.AperFunction,Plated,PTH,ComponentDrill
T5C0.0472
; #@! TA.AperFunction,Plated,PTH,ComponentDrill
T6C0.0512
; #@! TA.AperFunction,Plated,PTH,ComponentDrill
T7C0.0551
; #@! TA.AperFunction,Plated,PTH,ComponentDrill
T8C0.0630
%
G90
G05
T1
X1.1276Y-1.2492
X1.1276Y-1.3634
X1.1276Y-1.4764
X1.1276Y-1.9228
X1.1276Y-2.1417
X1.1276Y-2.2598
X1.1276Y-2.4945
X1.1276Y-2.6114
X1.1315Y-1.5866
X1.1315Y-1.6996
X1.1315Y-1.8098
X1.1315Y-2.037
X1.1315Y-2.3843
X1.1315Y-2.7177
X1.1315Y-2.828
X1.1315Y-2.9382
X1.1315Y-3.0484
X1.1315Y-3.1587
X1.1496Y-3.3906
X1.1496Y-3.5008
X1.2299Y-1.3043
X1.2299Y-1.5315
X1.2299Y-1.7508
X1.2299Y-2.8819
X1.2339Y-1.978
X1.2339Y-2.2008
X1.2339Y-2.4354
X1.2339Y-2.6587
X1.2339Y-3.1024
X1.252Y-3.4457
T2
X1.2717Y-0.5488
X1.2717Y-0.9488
X1.3512Y-1.4094
X1.3512Y-1.6261
X1.3512Y-1.8428
X1.3512Y-2.0595
X1.3512Y-2.2762
X1.3512Y-2.4929
X1.3512Y-2.7095
X1.3512Y-2.9262
X1.3512Y-3.1429
X1.3591Y-3.4567
X1.7512Y-1.4094
X1.7512Y-1.6261
X1.7512Y-1.8428
X1.7512Y-2.0595
X1.7512Y-2.2762
X1.7512Y-2.4929
X1.7512Y-2.7095
X1.7512Y-2.9262
X1.7512Y-3.1429
X1.7591Y-3.4567
X1.9488Y-0.5488
X1.9488Y-0.9488
X3.1236Y-2.2598
X3.3205Y-2.2598
X3.3307Y-1.3028
X3.3307Y-1.4406
T3
X1.9313Y-1.3543
X2.0313Y-1.3543
X2.1313Y-1.3543
X2.1967Y-1.6614
X2.1967Y-1.7614
X2.1967Y-1.8614
X2.2313Y-1.3543
X2.3415Y-1.6614
X2.3415Y-1.7614
X2.3415Y-1.8614
X2.5591Y-1.3022
X2.5591Y-1.4022
X2.5591Y-1.5022
X2.5591Y-1.6022
X2.5591Y-1.7022
X2.5591Y-1.8022
X2.5591Y-1.9022
X2.5591Y-2.0022
X2.5591Y-2.1022
X2.5591Y-2.2022
X2.5591Y-2.3022
X2.5591Y-2.4022
X2.5591Y-2.5022
X2.5591Y-2.6022
X2.5591Y-2.7022
X2.5591Y-2.8022
X2.5591Y-2.9022
X2.5591Y-3.0022
X2.5591Y-3.1022
X2.5591Y-3.2022
X2.6591Y-1.3022
X2.6591Y-1.4022
X2.6591Y-1.5022
X2.6591Y-1.6022
X2.6591Y-1.7022
X2.6591Y-1.8022
X2.6591Y-1.9022
X2.6591Y-2.0022
X2.6591Y-2.1022
X2.6591Y-2.2022
X2.6591Y-2.3022
X2.6591Y-2.4022
X2.6591Y-2.5022
X2.6591Y-2.6022
X2.6591Y-2.7022
X2.6591Y-2.8022
X2.6591Y-2.9022
X2.6591Y-3.0022
X2.6591Y-3.1022
X2.6591Y-3.2022
T4
X1.3213Y-1.0652
X1.4213Y-1.0652
X1.5213Y-1.0652
X1.7465Y-1.0652
X1.8465Y-1.0652
X1.9465Y-1.0652
X3.0661Y-1.9567
X3.1262Y-1.7943
X3.2Y-1.9567
X3.2689Y-1.7943
X3.3319Y-1.9567
T5
X2.9949Y-1.2878
X2.9988Y-1.465
T6
X1.5118Y-0.677
X1.7087Y-0.677
X3.5039Y-2.8819
X3.5039Y-3.0787
T7
X0.9361Y-1.1772
X0.9361Y-1.3772
X0.9361Y-1.5772
X0.9361Y-1.7772
X0.9361Y-1.9772
X0.9361Y-2.1772
X0.9361Y-2.5
X0.9361Y-2.7
X0.9361Y-2.9
X0.9361Y-3.1
X0.9361Y-3.3
X0.9361Y-3.5
T8
X2.7969Y-1.0736
X3.3969Y-1.0736
T0
M30
