%TF.GenerationSoftware,KiCad,Pcbnew,6.0.11-2627ca5db0~126~ubuntu20.04.1*%
%TF.CreationDate,2023-07-28T15:03:06-03:00*%
%TF.ProjectId,PEF2,50454632-2e6b-4696-9361-645f70636258,rev?*%
%TF.SameCoordinates,Original*%
%TF.FileFunction,Soldermask,Bot*%
%TF.FilePolarity,Negative*%
%FSLAX46Y46*%
G04 Gerber Fmt 4.6, Leading zero omitted, Abs format (unit mm)*
G04 Created by KiCad (PCBNEW 6.0.11-2627ca5db0~126~ubuntu20.04.1) date 2023-07-28 15:03:06*
%MOMM*%
%LPD*%
G01*
G04 APERTURE LIST*
G04 Aperture macros list*
%AMRoundRect*
0 Rectangle with rounded corners*
0 $1 Rounding radius*
0 $2 $3 $4 $5 $6 $7 $8 $9 X,Y pos of 4 corners*
0 Add a 4 corners polygon primitive as box body*
4,1,4,$2,$3,$4,$5,$6,$7,$8,$9,$2,$3,0*
0 Add four circle primitives for the rounded corners*
1,1,$1+$1,$2,$3*
1,1,$1+$1,$4,$5*
1,1,$1+$1,$6,$7*
1,1,$1+$1,$8,$9*
0 Add four rect primitives between the rounded corners*
20,1,$1+$1,$2,$3,$4,$5,0*
20,1,$1+$1,$4,$5,$6,$7,0*
20,1,$1+$1,$6,$7,$8,$9,0*
20,1,$1+$1,$8,$9,$2,$3,0*%
G04 Aperture macros list end*
%TA.AperFunction,Profile*%
%ADD10C,0.200000*%
%TD*%
%ADD11C,1.500000*%
%ADD12O,1.500000X1.500000*%
%ADD13C,5.000000*%
%ADD14R,1.700000X1.700000*%
%ADD15O,1.700000X1.700000*%
%ADD16C,1.600000*%
%ADD17O,1.600000X1.600000*%
%ADD18R,3.200000X3.200000*%
%ADD19O,3.200000X3.200000*%
%ADD20RoundRect,0.336538X-1.463462X1.063462X-1.463462X-1.063462X1.463462X-1.063462X1.463462X1.063462X0*%
%ADD21O,3.600000X2.800000*%
%ADD22C,2.400000*%
%ADD23C,2.000000*%
%ADD24R,2.600000X2.600000*%
%ADD25C,2.600000*%
%ADD26R,1.800000X1.800000*%
%ADD27R,2.500000X1.800000*%
%ADD28R,1.905000X2.000000*%
%ADD29O,1.905000X2.000000*%
G04 APERTURE END LIST*
D10*
X12400000Y-12400000D02*
X94000000Y-12400000D01*
X94000000Y-12400000D02*
X94000000Y-93400000D01*
X94000000Y-93400000D02*
X12400000Y-93400000D01*
X12400000Y-93400000D02*
X12400000Y-12400000D01*
D11*
%TO.C,Q3*%
X28640000Y-48840000D03*
D12*
X31340000Y-50240000D03*
D11*
X28740000Y-51740000D03*
%TD*%
D13*
%TO.C,H1*%
X17800000Y-18000000D03*
%TD*%
D14*
%TO.C,J3*%
X55795000Y-42200000D03*
D15*
X55795000Y-44740000D03*
X55795000Y-47280000D03*
%TD*%
D16*
%TO.C,R5*%
X34320000Y-74326250D03*
D17*
X44480000Y-74326250D03*
%TD*%
D18*
%TO.C,D1*%
X71040000Y-27270000D03*
D19*
X86280000Y-27270000D03*
%TD*%
D16*
%TO.C,R10*%
X34320000Y-63318750D03*
D17*
X44480000Y-63318750D03*
%TD*%
D16*
%TO.C,C2*%
X84600000Y-36590000D03*
X84600000Y-33090000D03*
%TD*%
D20*
%TO.C,J2*%
X23777500Y-63500000D03*
D21*
X23777500Y-68580000D03*
X23777500Y-73660000D03*
X23777500Y-78740000D03*
X23777500Y-83820000D03*
X23777500Y-88900000D03*
%TD*%
D16*
%TO.C,R2*%
X34320000Y-68822500D03*
D17*
X44480000Y-68822500D03*
%TD*%
D13*
%TO.C,H3*%
X88500000Y-87200000D03*
%TD*%
D22*
%TO.C,L1*%
X76170000Y-37210000D03*
X76070000Y-32710000D03*
%TD*%
D16*
%TO.C,R3*%
X34320000Y-79830000D03*
D17*
X44480000Y-79830000D03*
%TD*%
D11*
%TO.C,Q5*%
X29200000Y-86120000D03*
X31800000Y-87520000D03*
X29200000Y-88920000D03*
%TD*%
D23*
%TO.C,J7*%
X65000000Y-33075000D03*
X67540000Y-33075000D03*
X65000000Y-35615000D03*
X67540000Y-35615000D03*
X65000000Y-38155000D03*
X67540000Y-38155000D03*
X65000000Y-40695000D03*
X67540000Y-40695000D03*
X65000000Y-43235000D03*
X67540000Y-43235000D03*
X65000000Y-45775000D03*
X67540000Y-45775000D03*
X65000000Y-48315000D03*
X67540000Y-48315000D03*
X65000000Y-50855000D03*
X67540000Y-50855000D03*
X65000000Y-53395000D03*
X67540000Y-53395000D03*
X65000000Y-55935000D03*
X67540000Y-55935000D03*
X65000000Y-58475000D03*
X67540000Y-58475000D03*
X65000000Y-61015000D03*
X67540000Y-61015000D03*
X65000000Y-63555000D03*
X67540000Y-63555000D03*
X65000000Y-66095000D03*
X67540000Y-66095000D03*
X65000000Y-68635000D03*
X67540000Y-68635000D03*
X65000000Y-71175000D03*
X67540000Y-71175000D03*
X65000000Y-73715000D03*
X67540000Y-73715000D03*
X65000000Y-76255000D03*
X67540000Y-76255000D03*
X65000000Y-78795000D03*
X67540000Y-78795000D03*
X65000000Y-81335000D03*
X67540000Y-81335000D03*
%TD*%
D16*
%TO.C,R9*%
X34320000Y-41303750D03*
D17*
X44480000Y-41303750D03*
%TD*%
D16*
%TO.C,R7*%
X34320000Y-35800000D03*
D17*
X44480000Y-35800000D03*
%TD*%
D24*
%TO.C,J6*%
X89000000Y-78200000D03*
D25*
X89000000Y-73200000D03*
%TD*%
D11*
%TO.C,Q4*%
X28740000Y-71830000D03*
X31240000Y-73200000D03*
X28740000Y-74630000D03*
%TD*%
D26*
%TO.C,U2*%
X77880000Y-49700000D03*
D27*
X79405000Y-45575000D03*
X81280000Y-49700000D03*
X83030000Y-45575000D03*
X84630000Y-49700000D03*
%TD*%
D11*
%TO.C,Q2*%
X28740000Y-77430000D03*
X31340000Y-78800000D03*
X28740000Y-80230000D03*
%TD*%
D20*
%TO.C,J1*%
X23777500Y-29900000D03*
D21*
X23777500Y-34980000D03*
X23777500Y-40060000D03*
X23777500Y-45140000D03*
X23777500Y-50220000D03*
X23777500Y-55300000D03*
%TD*%
D11*
%TO.C,Q6*%
X28640000Y-31730000D03*
D12*
X31240000Y-33130000D03*
D11*
X28640000Y-34630000D03*
%TD*%
%TO.C,Q7*%
X28640000Y-54400000D03*
D12*
X31340000Y-55900000D03*
X28640000Y-57400000D03*
%TD*%
D16*
%TO.C,R1*%
X49500000Y-24100000D03*
D17*
X49500000Y-13940000D03*
%TD*%
D24*
%TO.C,J8*%
X43400000Y-17195000D03*
D25*
X38400000Y-17195000D03*
%TD*%
D14*
%TO.C,J4*%
X59475000Y-42200000D03*
D15*
X59475000Y-44740000D03*
X59475000Y-47280000D03*
%TD*%
D11*
%TO.C,Q1*%
X28640000Y-66330000D03*
D12*
X31340000Y-67530000D03*
X28740000Y-69030000D03*
%TD*%
D11*
%TO.C,Q8*%
X28640000Y-37500000D03*
D12*
X31240000Y-38900000D03*
X28740000Y-40300000D03*
%TD*%
D13*
%TO.C,H2*%
X88400000Y-18200000D03*
%TD*%
D16*
%TO.C,R6*%
X34520000Y-87800000D03*
D17*
X44680000Y-87800000D03*
%TD*%
D16*
%TO.C,R8*%
X34320000Y-57815000D03*
D17*
X44480000Y-57815000D03*
%TD*%
D16*
%TO.C,R4*%
X34320000Y-52311250D03*
D17*
X44480000Y-52311250D03*
%TD*%
D28*
%TO.C,U3*%
X38640000Y-27055000D03*
D29*
X36100000Y-27055000D03*
X33560000Y-27055000D03*
%TD*%
D16*
%TO.C,C1*%
X79340000Y-57400000D03*
X84340000Y-57400000D03*
%TD*%
%TO.C,R12*%
X32300000Y-24100000D03*
D17*
X32300000Y-13940000D03*
%TD*%
D11*
%TO.C,Q9*%
X28740000Y-60560000D03*
D12*
X31340000Y-61860000D03*
D11*
X28640000Y-63360000D03*
%TD*%
D14*
%TO.C,J5*%
X56675000Y-34400000D03*
D15*
X54135000Y-34400000D03*
X51595000Y-34400000D03*
X49055000Y-34400000D03*
%TD*%
D16*
%TO.C,R11*%
X34320000Y-46807500D03*
D17*
X44480000Y-46807500D03*
%TD*%
D11*
%TO.C,Q10*%
X28740000Y-43170000D03*
D12*
X31240000Y-44470000D03*
X28740000Y-45970000D03*
%TD*%
D28*
%TO.C,U1*%
X49440000Y-27055000D03*
D29*
X46900000Y-27055000D03*
X44360000Y-27055000D03*
%TD*%
M02*
