%TF.GenerationSoftware,KiCad,Pcbnew,6.0.7-f9a2dced07~116~ubuntu20.04.1*%
%TF.CreationDate,2022-12-12T07:14:16-03:00*%
%TF.ProjectId,PEF,5045462e-6b69-4636-9164-5f7063625858,rev?*%
%TF.SameCoordinates,Original*%
%TF.FileFunction,Drillmap*%
%TF.FilePolarity,Positive*%
%FSLAX45Y45*%
G04 Gerber Fmt 4.5, Leading zero omitted, Abs format (unit mm)*
G04 Created by KiCad (PCBNEW 6.0.7-f9a2dced07~116~ubuntu20.04.1) date 2022-12-12 07:14:16*
%MOMM*%
%LPD*%
G01*
G04 APERTURE LIST*
%ADD10C,0.200000*%
%ADD11C,0.075000*%
%ADD12C,0.080000*%
%ADD13C,0.100000*%
%ADD14C,0.110000*%
%ADD15C,0.120000*%
%ADD16C,0.130000*%
%ADD17C,0.140000*%
%ADD18C,0.160000*%
G04 APERTURE END LIST*
D10*
X1240000Y-1240000D02*
X9400000Y-1240000D01*
X9400000Y-1240000D02*
X9400000Y-9340000D01*
X9400000Y-9340000D02*
X1240000Y-9340000D01*
X1240000Y-9340000D02*
X1240000Y-1240000D01*
D11*
X2826500Y-3135500D02*
X2901500Y-3210500D01*
X2901500Y-3135500D02*
X2826500Y-3210500D01*
X2826500Y-3425500D02*
X2901500Y-3500500D01*
X2901500Y-3425500D02*
X2826500Y-3500500D01*
X2826500Y-3712500D02*
X2901500Y-3787500D01*
X2901500Y-3712500D02*
X2826500Y-3787500D01*
X2826500Y-4846500D02*
X2901500Y-4921500D01*
X2901500Y-4846500D02*
X2826500Y-4921500D01*
X2826500Y-5402500D02*
X2901500Y-5477500D01*
X2901500Y-5402500D02*
X2826500Y-5477500D01*
X2826500Y-5702500D02*
X2901500Y-5777500D01*
X2901500Y-5702500D02*
X2826500Y-5777500D01*
X2826500Y-6298500D02*
X2901500Y-6373500D01*
X2901500Y-6298500D02*
X2826500Y-6373500D01*
X2826500Y-6595500D02*
X2901500Y-6670500D01*
X2901500Y-6595500D02*
X2826500Y-6670500D01*
X2836500Y-3992500D02*
X2911500Y-4067500D01*
X2911500Y-3992500D02*
X2836500Y-4067500D01*
X2836500Y-4279500D02*
X2911500Y-4354500D01*
X2911500Y-4279500D02*
X2836500Y-4354500D01*
X2836500Y-4559500D02*
X2911500Y-4634500D01*
X2911500Y-4559500D02*
X2836500Y-4634500D01*
X2836500Y-5136500D02*
X2911500Y-5211500D01*
X2911500Y-5136500D02*
X2836500Y-5211500D01*
X2836500Y-6018500D02*
X2911500Y-6093500D01*
X2911500Y-6018500D02*
X2836500Y-6093500D01*
X2836500Y-6865500D02*
X2911500Y-6940500D01*
X2911500Y-6865500D02*
X2836500Y-6940500D01*
X2836500Y-7145500D02*
X2911500Y-7220500D01*
X2911500Y-7145500D02*
X2836500Y-7220500D01*
X2836500Y-7425500D02*
X2911500Y-7500500D01*
X2911500Y-7425500D02*
X2836500Y-7500500D01*
X2836500Y-7705500D02*
X2911500Y-7780500D01*
X2911500Y-7705500D02*
X2836500Y-7780500D01*
X2836500Y-7985500D02*
X2911500Y-8060500D01*
X2911500Y-7985500D02*
X2836500Y-8060500D01*
X2882500Y-8574500D02*
X2957500Y-8649500D01*
X2957500Y-8574500D02*
X2882500Y-8649500D01*
X2882500Y-8854500D02*
X2957500Y-8929500D01*
X2957500Y-8854500D02*
X2882500Y-8929500D01*
X3086500Y-3275500D02*
X3161500Y-3350500D01*
X3161500Y-3275500D02*
X3086500Y-3350500D01*
X3086500Y-3852500D02*
X3161500Y-3927500D01*
X3161500Y-3852500D02*
X3086500Y-3927500D01*
X3086500Y-4409500D02*
X3161500Y-4484500D01*
X3161500Y-4409500D02*
X3086500Y-4484500D01*
X3086500Y-7282500D02*
X3161500Y-7357500D01*
X3161500Y-7282500D02*
X3086500Y-7357500D01*
X3096500Y-4986500D02*
X3171500Y-5061500D01*
X3171500Y-4986500D02*
X3096500Y-5061500D01*
X3096500Y-5552500D02*
X3171500Y-5627500D01*
X3171500Y-5552500D02*
X3096500Y-5627500D01*
X3096500Y-6148500D02*
X3171500Y-6223500D01*
X3171500Y-6148500D02*
X3096500Y-6223500D01*
X3096500Y-6715500D02*
X3171500Y-6790500D01*
X3171500Y-6715500D02*
X3096500Y-6790500D01*
X3096500Y-7842500D02*
X3171500Y-7917500D01*
X3171500Y-7842500D02*
X3096500Y-7917500D01*
X3142500Y-8714500D02*
X3217500Y-8789500D01*
X3217500Y-8714500D02*
X3142500Y-8789500D01*
D12*
X3270000Y-1394000D02*
G75*
G03*
X3270000Y-1394000I-40000J0D01*
G01*
X3270000Y-2410000D02*
G75*
G03*
X3270000Y-2410000I-40000J0D01*
G01*
X3472000Y-3580000D02*
G75*
G03*
X3472000Y-3580000I-40000J0D01*
G01*
X3472000Y-4130375D02*
G75*
G03*
X3472000Y-4130375I-40000J0D01*
G01*
X3472000Y-4680750D02*
G75*
G03*
X3472000Y-4680750I-40000J0D01*
G01*
X3472000Y-5231125D02*
G75*
G03*
X3472000Y-5231125I-40000J0D01*
G01*
X3472000Y-5781500D02*
G75*
G03*
X3472000Y-5781500I-40000J0D01*
G01*
X3472000Y-6331875D02*
G75*
G03*
X3472000Y-6331875I-40000J0D01*
G01*
X3472000Y-6882250D02*
G75*
G03*
X3472000Y-6882250I-40000J0D01*
G01*
X3472000Y-7432625D02*
G75*
G03*
X3472000Y-7432625I-40000J0D01*
G01*
X3472000Y-7983000D02*
G75*
G03*
X3472000Y-7983000I-40000J0D01*
G01*
X3492000Y-8780000D02*
G75*
G03*
X3492000Y-8780000I-40000J0D01*
G01*
X4488000Y-3580000D02*
G75*
G03*
X4488000Y-3580000I-40000J0D01*
G01*
X4488000Y-4130375D02*
G75*
G03*
X4488000Y-4130375I-40000J0D01*
G01*
X4488000Y-4680750D02*
G75*
G03*
X4488000Y-4680750I-40000J0D01*
G01*
X4488000Y-5231125D02*
G75*
G03*
X4488000Y-5231125I-40000J0D01*
G01*
X4488000Y-5781500D02*
G75*
G03*
X4488000Y-5781500I-40000J0D01*
G01*
X4488000Y-6331875D02*
G75*
G03*
X4488000Y-6331875I-40000J0D01*
G01*
X4488000Y-6882250D02*
G75*
G03*
X4488000Y-6882250I-40000J0D01*
G01*
X4488000Y-7432625D02*
G75*
G03*
X4488000Y-7432625I-40000J0D01*
G01*
X4488000Y-7983000D02*
G75*
G03*
X4488000Y-7983000I-40000J0D01*
G01*
X4508000Y-8780000D02*
G75*
G03*
X4508000Y-8780000I-40000J0D01*
G01*
X4990000Y-1394000D02*
G75*
G03*
X4990000Y-1394000I-40000J0D01*
G01*
X4990000Y-2410000D02*
G75*
G03*
X4990000Y-2410000I-40000J0D01*
G01*
X7974000Y-5740000D02*
G75*
G03*
X7974000Y-5740000I-40000J0D01*
G01*
X8474000Y-5740000D02*
G75*
G03*
X8474000Y-5740000I-40000J0D01*
G01*
X8500000Y-3309000D02*
G75*
G03*
X8500000Y-3309000I-40000J0D01*
G01*
X8500000Y-3659000D02*
G75*
G03*
X8500000Y-3659000I-40000J0D01*
G01*
D13*
X4905500Y-3390000D02*
X4905500Y-3490000D01*
X4855500Y-3440000D02*
X4955500Y-3440000D01*
X5159500Y-3390000D02*
X5159500Y-3490000D01*
X5109500Y-3440000D02*
X5209500Y-3440000D01*
X5413500Y-3390000D02*
X5413500Y-3490000D01*
X5363500Y-3440000D02*
X5463500Y-3440000D01*
X5579500Y-4170000D02*
X5579500Y-4270000D01*
X5529500Y-4220000D02*
X5629500Y-4220000D01*
X5579500Y-4424000D02*
X5579500Y-4524000D01*
X5529500Y-4474000D02*
X5629500Y-4474000D01*
X5579500Y-4678000D02*
X5579500Y-4778000D01*
X5529500Y-4728000D02*
X5629500Y-4728000D01*
X5667500Y-3390000D02*
X5667500Y-3490000D01*
X5617500Y-3440000D02*
X5717500Y-3440000D01*
X5947500Y-4170000D02*
X5947500Y-4270000D01*
X5897500Y-4220000D02*
X5997500Y-4220000D01*
X5947500Y-4424000D02*
X5947500Y-4524000D01*
X5897500Y-4474000D02*
X5997500Y-4474000D01*
X5947500Y-4678000D02*
X5947500Y-4778000D01*
X5897500Y-4728000D02*
X5997500Y-4728000D01*
X6500000Y-3257500D02*
X6500000Y-3357500D01*
X6450000Y-3307500D02*
X6550000Y-3307500D01*
X6500000Y-3511500D02*
X6500000Y-3611500D01*
X6450000Y-3561500D02*
X6550000Y-3561500D01*
X6500000Y-3765500D02*
X6500000Y-3865500D01*
X6450000Y-3815500D02*
X6550000Y-3815500D01*
X6500000Y-4019500D02*
X6500000Y-4119500D01*
X6450000Y-4069500D02*
X6550000Y-4069500D01*
X6500000Y-4273500D02*
X6500000Y-4373500D01*
X6450000Y-4323500D02*
X6550000Y-4323500D01*
X6500000Y-4527500D02*
X6500000Y-4627500D01*
X6450000Y-4577500D02*
X6550000Y-4577500D01*
X6500000Y-4781500D02*
X6500000Y-4881500D01*
X6450000Y-4831500D02*
X6550000Y-4831500D01*
X6500000Y-5035500D02*
X6500000Y-5135500D01*
X6450000Y-5085500D02*
X6550000Y-5085500D01*
X6500000Y-5289500D02*
X6500000Y-5389500D01*
X6450000Y-5339500D02*
X6550000Y-5339500D01*
X6500000Y-5543500D02*
X6500000Y-5643500D01*
X6450000Y-5593500D02*
X6550000Y-5593500D01*
X6500000Y-5797500D02*
X6500000Y-5897500D01*
X6450000Y-5847500D02*
X6550000Y-5847500D01*
X6500000Y-6051500D02*
X6500000Y-6151500D01*
X6450000Y-6101500D02*
X6550000Y-6101500D01*
X6500000Y-6305500D02*
X6500000Y-6405500D01*
X6450000Y-6355500D02*
X6550000Y-6355500D01*
X6500000Y-6559500D02*
X6500000Y-6659500D01*
X6450000Y-6609500D02*
X6550000Y-6609500D01*
X6500000Y-6813500D02*
X6500000Y-6913500D01*
X6450000Y-6863500D02*
X6550000Y-6863500D01*
X6500000Y-7067500D02*
X6500000Y-7167500D01*
X6450000Y-7117500D02*
X6550000Y-7117500D01*
X6500000Y-7321500D02*
X6500000Y-7421500D01*
X6450000Y-7371500D02*
X6550000Y-7371500D01*
X6500000Y-7575500D02*
X6500000Y-7675500D01*
X6450000Y-7625500D02*
X6550000Y-7625500D01*
X6500000Y-7829500D02*
X6500000Y-7929500D01*
X6450000Y-7879500D02*
X6550000Y-7879500D01*
X6500000Y-8083500D02*
X6500000Y-8183500D01*
X6450000Y-8133500D02*
X6550000Y-8133500D01*
X6754000Y-3257500D02*
X6754000Y-3357500D01*
X6704000Y-3307500D02*
X6804000Y-3307500D01*
X6754000Y-3511500D02*
X6754000Y-3611500D01*
X6704000Y-3561500D02*
X6804000Y-3561500D01*
X6754000Y-3765500D02*
X6754000Y-3865500D01*
X6704000Y-3815500D02*
X6804000Y-3815500D01*
X6754000Y-4019500D02*
X6754000Y-4119500D01*
X6704000Y-4069500D02*
X6804000Y-4069500D01*
X6754000Y-4273500D02*
X6754000Y-4373500D01*
X6704000Y-4323500D02*
X6804000Y-4323500D01*
X6754000Y-4527500D02*
X6754000Y-4627500D01*
X6704000Y-4577500D02*
X6804000Y-4577500D01*
X6754000Y-4781500D02*
X6754000Y-4881500D01*
X6704000Y-4831500D02*
X6804000Y-4831500D01*
X6754000Y-5035500D02*
X6754000Y-5135500D01*
X6704000Y-5085500D02*
X6804000Y-5085500D01*
X6754000Y-5289500D02*
X6754000Y-5389500D01*
X6704000Y-5339500D02*
X6804000Y-5339500D01*
X6754000Y-5543500D02*
X6754000Y-5643500D01*
X6704000Y-5593500D02*
X6804000Y-5593500D01*
X6754000Y-5797500D02*
X6754000Y-5897500D01*
X6704000Y-5847500D02*
X6804000Y-5847500D01*
X6754000Y-6051500D02*
X6754000Y-6151500D01*
X6704000Y-6101500D02*
X6804000Y-6101500D01*
X6754000Y-6305500D02*
X6754000Y-6405500D01*
X6704000Y-6355500D02*
X6804000Y-6355500D01*
X6754000Y-6559500D02*
X6754000Y-6659500D01*
X6704000Y-6609500D02*
X6804000Y-6609500D01*
X6754000Y-6813500D02*
X6754000Y-6913500D01*
X6704000Y-6863500D02*
X6804000Y-6863500D01*
X6754000Y-7067500D02*
X6754000Y-7167500D01*
X6704000Y-7117500D02*
X6804000Y-7117500D01*
X6754000Y-7321500D02*
X6754000Y-7421500D01*
X6704000Y-7371500D02*
X6804000Y-7371500D01*
X6754000Y-7575500D02*
X6754000Y-7675500D01*
X6704000Y-7625500D02*
X6804000Y-7625500D01*
X6754000Y-7829500D02*
X6754000Y-7929500D01*
X6704000Y-7879500D02*
X6804000Y-7879500D01*
X6754000Y-8083500D02*
X6754000Y-8183500D01*
X6704000Y-8133500D02*
X6804000Y-8133500D01*
D14*
X3394891Y-2744391D02*
X3394891Y-2666609D01*
X3317109Y-2666609D01*
X3317109Y-2744391D01*
X3394891Y-2744391D01*
X3648891Y-2744391D02*
X3648891Y-2666609D01*
X3571109Y-2666609D01*
X3571109Y-2744391D01*
X3648891Y-2744391D01*
X3902891Y-2744391D02*
X3902891Y-2666609D01*
X3825109Y-2666609D01*
X3825109Y-2744391D01*
X3902891Y-2744391D01*
X4474891Y-2744391D02*
X4474891Y-2666609D01*
X4397109Y-2666609D01*
X4397109Y-2744391D01*
X4474891Y-2744391D01*
X4728891Y-2744391D02*
X4728891Y-2666609D01*
X4651109Y-2666609D01*
X4651109Y-2744391D01*
X4728891Y-2744391D01*
X4982891Y-2744391D02*
X4982891Y-2666609D01*
X4905109Y-2666609D01*
X4905109Y-2744391D01*
X4982891Y-2744391D01*
X7826891Y-5008891D02*
X7826891Y-4931109D01*
X7749109Y-4931109D01*
X7749109Y-5008891D01*
X7826891Y-5008891D01*
X7979391Y-4596391D02*
X7979391Y-4518609D01*
X7901609Y-4518609D01*
X7901609Y-4596391D01*
X7979391Y-4596391D01*
X8166891Y-5008891D02*
X8166891Y-4931109D01*
X8089109Y-4931109D01*
X8089109Y-5008891D01*
X8166891Y-5008891D01*
X8341891Y-4596391D02*
X8341891Y-4518609D01*
X8264109Y-4518609D01*
X8264109Y-4596391D01*
X8341891Y-4596391D01*
X8501891Y-5008891D02*
X8501891Y-4931109D01*
X8424109Y-4931109D01*
X8424109Y-5008891D01*
X8501891Y-5008891D01*
D15*
X7607000Y-3331000D02*
X7667000Y-3271000D01*
X7607000Y-3211000D01*
X7547000Y-3271000D01*
X7607000Y-3331000D01*
X7617000Y-3781000D02*
X7677000Y-3721000D01*
X7617000Y-3661000D01*
X7557000Y-3721000D01*
X7617000Y-3781000D01*
D16*
X3775000Y-1654500D02*
X3905000Y-1784500D01*
X3905000Y-1654500D02*
X3775000Y-1784500D01*
X3905000Y-1719500D02*
G75*
G03*
X3905000Y-1719500I-65000J0D01*
G01*
X4275000Y-1654500D02*
X4405000Y-1784500D01*
X4405000Y-1654500D02*
X4275000Y-1784500D01*
X4405000Y-1719500D02*
G75*
G03*
X4405000Y-1719500I-65000J0D01*
G01*
X8835000Y-7255000D02*
X8965000Y-7385000D01*
X8965000Y-7255000D02*
X8835000Y-7385000D01*
X8965000Y-7320000D02*
G75*
G03*
X8965000Y-7320000I-65000J0D01*
G01*
X8835000Y-7755000D02*
X8965000Y-7885000D01*
X8965000Y-7755000D02*
X8835000Y-7885000D01*
X8965000Y-7820000D02*
G75*
G03*
X8965000Y-7820000I-65000J0D01*
G01*
D17*
X2307750Y-2920000D02*
X2447750Y-3060000D01*
X2447750Y-2920000D02*
X2307750Y-3060000D01*
X2377750Y-2920000D02*
X2377750Y-3060000D01*
X2307750Y-2990000D02*
X2447750Y-2990000D01*
X2307750Y-3428000D02*
X2447750Y-3568000D01*
X2447750Y-3428000D02*
X2307750Y-3568000D01*
X2377750Y-3428000D02*
X2377750Y-3568000D01*
X2307750Y-3498000D02*
X2447750Y-3498000D01*
X2307750Y-3936000D02*
X2447750Y-4076000D01*
X2447750Y-3936000D02*
X2307750Y-4076000D01*
X2377750Y-3936000D02*
X2377750Y-4076000D01*
X2307750Y-4006000D02*
X2447750Y-4006000D01*
X2307750Y-4444000D02*
X2447750Y-4584000D01*
X2447750Y-4444000D02*
X2307750Y-4584000D01*
X2377750Y-4444000D02*
X2377750Y-4584000D01*
X2307750Y-4514000D02*
X2447750Y-4514000D01*
X2307750Y-4952000D02*
X2447750Y-5092000D01*
X2447750Y-4952000D02*
X2307750Y-5092000D01*
X2377750Y-4952000D02*
X2377750Y-5092000D01*
X2307750Y-5022000D02*
X2447750Y-5022000D01*
X2307750Y-5460000D02*
X2447750Y-5600000D01*
X2447750Y-5460000D02*
X2307750Y-5600000D01*
X2377750Y-5460000D02*
X2377750Y-5600000D01*
X2307750Y-5530000D02*
X2447750Y-5530000D01*
X2307750Y-6280000D02*
X2447750Y-6420000D01*
X2447750Y-6280000D02*
X2307750Y-6420000D01*
X2377750Y-6280000D02*
X2377750Y-6420000D01*
X2307750Y-6350000D02*
X2447750Y-6350000D01*
X2307750Y-6788000D02*
X2447750Y-6928000D01*
X2447750Y-6788000D02*
X2307750Y-6928000D01*
X2377750Y-6788000D02*
X2377750Y-6928000D01*
X2307750Y-6858000D02*
X2447750Y-6858000D01*
X2307750Y-7296000D02*
X2447750Y-7436000D01*
X2447750Y-7296000D02*
X2307750Y-7436000D01*
X2377750Y-7296000D02*
X2377750Y-7436000D01*
X2307750Y-7366000D02*
X2447750Y-7366000D01*
X2307750Y-7804000D02*
X2447750Y-7944000D01*
X2447750Y-7804000D02*
X2307750Y-7944000D01*
X2377750Y-7804000D02*
X2377750Y-7944000D01*
X2307750Y-7874000D02*
X2447750Y-7874000D01*
X2307750Y-8312000D02*
X2447750Y-8452000D01*
X2447750Y-8312000D02*
X2307750Y-8452000D01*
X2377750Y-8312000D02*
X2377750Y-8452000D01*
X2307750Y-8382000D02*
X2447750Y-8382000D01*
X2307750Y-8820000D02*
X2447750Y-8960000D01*
X2447750Y-8820000D02*
X2307750Y-8960000D01*
X2377750Y-8820000D02*
X2377750Y-8960000D01*
X2307750Y-8890000D02*
X2447750Y-8890000D01*
D18*
X7024000Y-2647000D02*
X7184000Y-2807000D01*
X7184000Y-2647000D02*
X7024000Y-2807000D01*
X7160569Y-2783569D02*
X7160569Y-2670431D01*
X7047431Y-2670431D01*
X7047431Y-2783569D01*
X7160569Y-2783569D01*
X8548000Y-2647000D02*
X8708000Y-2807000D01*
X8708000Y-2647000D02*
X8548000Y-2807000D01*
X8684569Y-2783569D02*
X8684569Y-2670431D01*
X8571431Y-2670431D01*
X8571431Y-2783569D01*
X8684569Y-2783569D01*
D10*
X1487619Y-9660476D02*
X1487619Y-9460476D01*
X1535238Y-9460476D01*
X1563809Y-9470000D01*
X1582857Y-9489048D01*
X1592381Y-9508095D01*
X1601905Y-9546190D01*
X1601905Y-9574762D01*
X1592381Y-9612857D01*
X1582857Y-9631905D01*
X1563809Y-9650952D01*
X1535238Y-9660476D01*
X1487619Y-9660476D01*
X1687619Y-9660476D02*
X1687619Y-9527143D01*
X1687619Y-9565238D02*
X1697143Y-9546190D01*
X1706667Y-9536667D01*
X1725714Y-9527143D01*
X1744762Y-9527143D01*
X1811428Y-9660476D02*
X1811428Y-9527143D01*
X1811428Y-9460476D02*
X1801905Y-9470000D01*
X1811428Y-9479524D01*
X1820952Y-9470000D01*
X1811428Y-9460476D01*
X1811428Y-9479524D01*
X1935238Y-9660476D02*
X1916190Y-9650952D01*
X1906667Y-9631905D01*
X1906667Y-9460476D01*
X2040000Y-9660476D02*
X2020952Y-9650952D01*
X2011428Y-9631905D01*
X2011428Y-9460476D01*
X2268571Y-9660476D02*
X2268571Y-9460476D01*
X2335238Y-9603333D01*
X2401905Y-9460476D01*
X2401905Y-9660476D01*
X2582857Y-9660476D02*
X2582857Y-9555714D01*
X2573333Y-9536667D01*
X2554286Y-9527143D01*
X2516190Y-9527143D01*
X2497143Y-9536667D01*
X2582857Y-9650952D02*
X2563810Y-9660476D01*
X2516190Y-9660476D01*
X2497143Y-9650952D01*
X2487619Y-9631905D01*
X2487619Y-9612857D01*
X2497143Y-9593810D01*
X2516190Y-9584286D01*
X2563810Y-9584286D01*
X2582857Y-9574762D01*
X2678095Y-9527143D02*
X2678095Y-9727143D01*
X2678095Y-9536667D02*
X2697143Y-9527143D01*
X2735238Y-9527143D01*
X2754286Y-9536667D01*
X2763810Y-9546190D01*
X2773333Y-9565238D01*
X2773333Y-9622381D01*
X2763810Y-9641429D01*
X2754286Y-9650952D01*
X2735238Y-9660476D01*
X2697143Y-9660476D01*
X2678095Y-9650952D01*
X2859048Y-9641429D02*
X2868571Y-9650952D01*
X2859048Y-9660476D01*
X2849524Y-9650952D01*
X2859048Y-9641429D01*
X2859048Y-9660476D01*
X2859048Y-9536667D02*
X2868571Y-9546190D01*
X2859048Y-9555714D01*
X2849524Y-9546190D01*
X2859048Y-9536667D01*
X2859048Y-9555714D01*
D11*
X1155000Y-9952500D02*
X1230000Y-10027500D01*
X1230000Y-9952500D02*
X1155000Y-10027500D01*
D10*
X1525714Y-9880476D02*
X1544762Y-9880476D01*
X1563809Y-9890000D01*
X1573333Y-9899524D01*
X1582857Y-9918571D01*
X1592381Y-9956667D01*
X1592381Y-10004286D01*
X1582857Y-10042381D01*
X1573333Y-10061429D01*
X1563809Y-10070952D01*
X1544762Y-10080476D01*
X1525714Y-10080476D01*
X1506667Y-10070952D01*
X1497143Y-10061429D01*
X1487619Y-10042381D01*
X1478095Y-10004286D01*
X1478095Y-9956667D01*
X1487619Y-9918571D01*
X1497143Y-9899524D01*
X1506667Y-9890000D01*
X1525714Y-9880476D01*
X1678095Y-10061429D02*
X1687619Y-10070952D01*
X1678095Y-10080476D01*
X1668571Y-10070952D01*
X1678095Y-10061429D01*
X1678095Y-10080476D01*
X1754286Y-9880476D02*
X1887619Y-9880476D01*
X1801905Y-10080476D01*
X2059048Y-9880476D02*
X1963809Y-9880476D01*
X1954286Y-9975714D01*
X1963809Y-9966190D01*
X1982857Y-9956667D01*
X2030476Y-9956667D01*
X2049524Y-9966190D01*
X2059048Y-9975714D01*
X2068571Y-9994762D01*
X2068571Y-10042381D01*
X2059048Y-10061429D01*
X2049524Y-10070952D01*
X2030476Y-10080476D01*
X1982857Y-10080476D01*
X1963809Y-10070952D01*
X1954286Y-10061429D01*
X2192381Y-9880476D02*
X2211429Y-9880476D01*
X2230476Y-9890000D01*
X2240000Y-9899524D01*
X2249524Y-9918571D01*
X2259048Y-9956667D01*
X2259048Y-10004286D01*
X2249524Y-10042381D01*
X2240000Y-10061429D01*
X2230476Y-10070952D01*
X2211429Y-10080476D01*
X2192381Y-10080476D01*
X2173333Y-10070952D01*
X2163810Y-10061429D01*
X2154286Y-10042381D01*
X2144762Y-10004286D01*
X2144762Y-9956667D01*
X2154286Y-9918571D01*
X2163810Y-9899524D01*
X2173333Y-9890000D01*
X2192381Y-9880476D01*
X2344762Y-10080476D02*
X2344762Y-9947143D01*
X2344762Y-9966190D02*
X2354286Y-9956667D01*
X2373333Y-9947143D01*
X2401905Y-9947143D01*
X2420952Y-9956667D01*
X2430476Y-9975714D01*
X2430476Y-10080476D01*
X2430476Y-9975714D02*
X2440000Y-9956667D01*
X2459048Y-9947143D01*
X2487619Y-9947143D01*
X2506667Y-9956667D01*
X2516190Y-9975714D01*
X2516190Y-10080476D01*
X2611429Y-10080476D02*
X2611429Y-9947143D01*
X2611429Y-9966190D02*
X2620952Y-9956667D01*
X2640000Y-9947143D01*
X2668571Y-9947143D01*
X2687619Y-9956667D01*
X2697143Y-9975714D01*
X2697143Y-10080476D01*
X2697143Y-9975714D02*
X2706667Y-9956667D01*
X2725714Y-9947143D01*
X2754286Y-9947143D01*
X2773333Y-9956667D01*
X2782857Y-9975714D01*
X2782857Y-10080476D01*
X3173333Y-9870952D02*
X3001905Y-10128095D01*
X3430476Y-9880476D02*
X3449524Y-9880476D01*
X3468571Y-9890000D01*
X3478095Y-9899524D01*
X3487619Y-9918571D01*
X3497143Y-9956667D01*
X3497143Y-10004286D01*
X3487619Y-10042381D01*
X3478095Y-10061429D01*
X3468571Y-10070952D01*
X3449524Y-10080476D01*
X3430476Y-10080476D01*
X3411428Y-10070952D01*
X3401905Y-10061429D01*
X3392381Y-10042381D01*
X3382857Y-10004286D01*
X3382857Y-9956667D01*
X3392381Y-9918571D01*
X3401905Y-9899524D01*
X3411428Y-9890000D01*
X3430476Y-9880476D01*
X3582857Y-10061429D02*
X3592381Y-10070952D01*
X3582857Y-10080476D01*
X3573333Y-10070952D01*
X3582857Y-10061429D01*
X3582857Y-10080476D01*
X3716190Y-9880476D02*
X3735238Y-9880476D01*
X3754286Y-9890000D01*
X3763809Y-9899524D01*
X3773333Y-9918571D01*
X3782857Y-9956667D01*
X3782857Y-10004286D01*
X3773333Y-10042381D01*
X3763809Y-10061429D01*
X3754286Y-10070952D01*
X3735238Y-10080476D01*
X3716190Y-10080476D01*
X3697143Y-10070952D01*
X3687619Y-10061429D01*
X3678095Y-10042381D01*
X3668571Y-10004286D01*
X3668571Y-9956667D01*
X3678095Y-9918571D01*
X3687619Y-9899524D01*
X3697143Y-9890000D01*
X3716190Y-9880476D01*
X3859048Y-9899524D02*
X3868571Y-9890000D01*
X3887619Y-9880476D01*
X3935238Y-9880476D01*
X3954286Y-9890000D01*
X3963809Y-9899524D01*
X3973333Y-9918571D01*
X3973333Y-9937619D01*
X3963809Y-9966190D01*
X3849524Y-10080476D01*
X3973333Y-10080476D01*
X4068571Y-10080476D02*
X4106667Y-10080476D01*
X4125714Y-10070952D01*
X4135238Y-10061429D01*
X4154286Y-10032857D01*
X4163809Y-9994762D01*
X4163809Y-9918571D01*
X4154286Y-9899524D01*
X4144762Y-9890000D01*
X4125714Y-9880476D01*
X4087619Y-9880476D01*
X4068571Y-9890000D01*
X4059048Y-9899524D01*
X4049524Y-9918571D01*
X4049524Y-9966190D01*
X4059048Y-9985238D01*
X4068571Y-9994762D01*
X4087619Y-10004286D01*
X4125714Y-10004286D01*
X4144762Y-9994762D01*
X4154286Y-9985238D01*
X4163809Y-9966190D01*
X4344762Y-9880476D02*
X4249524Y-9880476D01*
X4240000Y-9975714D01*
X4249524Y-9966190D01*
X4268571Y-9956667D01*
X4316190Y-9956667D01*
X4335238Y-9966190D01*
X4344762Y-9975714D01*
X4354286Y-9994762D01*
X4354286Y-10042381D01*
X4344762Y-10061429D01*
X4335238Y-10070952D01*
X4316190Y-10080476D01*
X4268571Y-10080476D01*
X4249524Y-10070952D01*
X4240000Y-10061429D01*
X4430476Y-9880476D02*
X4430476Y-9918571D01*
X4506667Y-9880476D02*
X4506667Y-9918571D01*
X4801905Y-10156667D02*
X4792381Y-10147143D01*
X4773333Y-10118571D01*
X4763810Y-10099524D01*
X4754286Y-10070952D01*
X4744762Y-10023333D01*
X4744762Y-9985238D01*
X4754286Y-9937619D01*
X4763810Y-9909048D01*
X4773333Y-9890000D01*
X4792381Y-9861429D01*
X4801905Y-9851905D01*
X4859048Y-9880476D02*
X4982857Y-9880476D01*
X4916190Y-9956667D01*
X4944762Y-9956667D01*
X4963810Y-9966190D01*
X4973333Y-9975714D01*
X4982857Y-9994762D01*
X4982857Y-10042381D01*
X4973333Y-10061429D01*
X4963810Y-10070952D01*
X4944762Y-10080476D01*
X4887619Y-10080476D01*
X4868571Y-10070952D01*
X4859048Y-10061429D01*
X5106667Y-9880476D02*
X5125714Y-9880476D01*
X5144762Y-9890000D01*
X5154286Y-9899524D01*
X5163810Y-9918571D01*
X5173333Y-9956667D01*
X5173333Y-10004286D01*
X5163810Y-10042381D01*
X5154286Y-10061429D01*
X5144762Y-10070952D01*
X5125714Y-10080476D01*
X5106667Y-10080476D01*
X5087619Y-10070952D01*
X5078095Y-10061429D01*
X5068571Y-10042381D01*
X5059048Y-10004286D01*
X5059048Y-9956667D01*
X5068571Y-9918571D01*
X5078095Y-9899524D01*
X5087619Y-9890000D01*
X5106667Y-9880476D01*
X5411429Y-10080476D02*
X5411429Y-9880476D01*
X5497143Y-10080476D02*
X5497143Y-9975714D01*
X5487619Y-9956667D01*
X5468571Y-9947143D01*
X5440000Y-9947143D01*
X5420952Y-9956667D01*
X5411429Y-9966190D01*
X5620952Y-10080476D02*
X5601905Y-10070952D01*
X5592381Y-10061429D01*
X5582857Y-10042381D01*
X5582857Y-9985238D01*
X5592381Y-9966190D01*
X5601905Y-9956667D01*
X5620952Y-9947143D01*
X5649524Y-9947143D01*
X5668571Y-9956667D01*
X5678095Y-9966190D01*
X5687619Y-9985238D01*
X5687619Y-10042381D01*
X5678095Y-10061429D01*
X5668571Y-10070952D01*
X5649524Y-10080476D01*
X5620952Y-10080476D01*
X5801905Y-10080476D02*
X5782857Y-10070952D01*
X5773333Y-10051905D01*
X5773333Y-9880476D01*
X5954286Y-10070952D02*
X5935238Y-10080476D01*
X5897143Y-10080476D01*
X5878095Y-10070952D01*
X5868571Y-10051905D01*
X5868571Y-9975714D01*
X5878095Y-9956667D01*
X5897143Y-9947143D01*
X5935238Y-9947143D01*
X5954286Y-9956667D01*
X5963809Y-9975714D01*
X5963809Y-9994762D01*
X5868571Y-10013810D01*
X6040000Y-10070952D02*
X6059048Y-10080476D01*
X6097143Y-10080476D01*
X6116190Y-10070952D01*
X6125714Y-10051905D01*
X6125714Y-10042381D01*
X6116190Y-10023333D01*
X6097143Y-10013810D01*
X6068571Y-10013810D01*
X6049524Y-10004286D01*
X6040000Y-9985238D01*
X6040000Y-9975714D01*
X6049524Y-9956667D01*
X6068571Y-9947143D01*
X6097143Y-9947143D01*
X6116190Y-9956667D01*
X6192381Y-10156667D02*
X6201905Y-10147143D01*
X6220952Y-10118571D01*
X6230476Y-10099524D01*
X6240000Y-10070952D01*
X6249524Y-10023333D01*
X6249524Y-9985238D01*
X6240000Y-9937619D01*
X6230476Y-9909048D01*
X6220952Y-9890000D01*
X6201905Y-9861429D01*
X6192381Y-9851905D01*
D12*
X1230000Y-10254000D02*
G75*
G03*
X1230000Y-10254000I-40000J0D01*
G01*
D10*
X1525714Y-10144476D02*
X1544762Y-10144476D01*
X1563809Y-10154000D01*
X1573333Y-10163524D01*
X1582857Y-10182571D01*
X1592381Y-10220667D01*
X1592381Y-10268286D01*
X1582857Y-10306381D01*
X1573333Y-10325429D01*
X1563809Y-10334952D01*
X1544762Y-10344476D01*
X1525714Y-10344476D01*
X1506667Y-10334952D01*
X1497143Y-10325429D01*
X1487619Y-10306381D01*
X1478095Y-10268286D01*
X1478095Y-10220667D01*
X1487619Y-10182571D01*
X1497143Y-10163524D01*
X1506667Y-10154000D01*
X1525714Y-10144476D01*
X1678095Y-10325429D02*
X1687619Y-10334952D01*
X1678095Y-10344476D01*
X1668571Y-10334952D01*
X1678095Y-10325429D01*
X1678095Y-10344476D01*
X1801905Y-10230190D02*
X1782857Y-10220667D01*
X1773333Y-10211143D01*
X1763809Y-10192095D01*
X1763809Y-10182571D01*
X1773333Y-10163524D01*
X1782857Y-10154000D01*
X1801905Y-10144476D01*
X1840000Y-10144476D01*
X1859048Y-10154000D01*
X1868571Y-10163524D01*
X1878095Y-10182571D01*
X1878095Y-10192095D01*
X1868571Y-10211143D01*
X1859048Y-10220667D01*
X1840000Y-10230190D01*
X1801905Y-10230190D01*
X1782857Y-10239714D01*
X1773333Y-10249238D01*
X1763809Y-10268286D01*
X1763809Y-10306381D01*
X1773333Y-10325429D01*
X1782857Y-10334952D01*
X1801905Y-10344476D01*
X1840000Y-10344476D01*
X1859048Y-10334952D01*
X1868571Y-10325429D01*
X1878095Y-10306381D01*
X1878095Y-10268286D01*
X1868571Y-10249238D01*
X1859048Y-10239714D01*
X1840000Y-10230190D01*
X2001905Y-10144476D02*
X2020952Y-10144476D01*
X2040000Y-10154000D01*
X2049524Y-10163524D01*
X2059048Y-10182571D01*
X2068571Y-10220667D01*
X2068571Y-10268286D01*
X2059048Y-10306381D01*
X2049524Y-10325429D01*
X2040000Y-10334952D01*
X2020952Y-10344476D01*
X2001905Y-10344476D01*
X1982857Y-10334952D01*
X1973333Y-10325429D01*
X1963809Y-10306381D01*
X1954286Y-10268286D01*
X1954286Y-10220667D01*
X1963809Y-10182571D01*
X1973333Y-10163524D01*
X1982857Y-10154000D01*
X2001905Y-10144476D01*
X2192381Y-10144476D02*
X2211429Y-10144476D01*
X2230476Y-10154000D01*
X2240000Y-10163524D01*
X2249524Y-10182571D01*
X2259048Y-10220667D01*
X2259048Y-10268286D01*
X2249524Y-10306381D01*
X2240000Y-10325429D01*
X2230476Y-10334952D01*
X2211429Y-10344476D01*
X2192381Y-10344476D01*
X2173333Y-10334952D01*
X2163810Y-10325429D01*
X2154286Y-10306381D01*
X2144762Y-10268286D01*
X2144762Y-10220667D01*
X2154286Y-10182571D01*
X2163810Y-10163524D01*
X2173333Y-10154000D01*
X2192381Y-10144476D01*
X2344762Y-10344476D02*
X2344762Y-10211143D01*
X2344762Y-10230190D02*
X2354286Y-10220667D01*
X2373333Y-10211143D01*
X2401905Y-10211143D01*
X2420952Y-10220667D01*
X2430476Y-10239714D01*
X2430476Y-10344476D01*
X2430476Y-10239714D02*
X2440000Y-10220667D01*
X2459048Y-10211143D01*
X2487619Y-10211143D01*
X2506667Y-10220667D01*
X2516190Y-10239714D01*
X2516190Y-10344476D01*
X2611429Y-10344476D02*
X2611429Y-10211143D01*
X2611429Y-10230190D02*
X2620952Y-10220667D01*
X2640000Y-10211143D01*
X2668571Y-10211143D01*
X2687619Y-10220667D01*
X2697143Y-10239714D01*
X2697143Y-10344476D01*
X2697143Y-10239714D02*
X2706667Y-10220667D01*
X2725714Y-10211143D01*
X2754286Y-10211143D01*
X2773333Y-10220667D01*
X2782857Y-10239714D01*
X2782857Y-10344476D01*
X3173333Y-10134952D02*
X3001905Y-10392095D01*
X3430476Y-10144476D02*
X3449524Y-10144476D01*
X3468571Y-10154000D01*
X3478095Y-10163524D01*
X3487619Y-10182571D01*
X3497143Y-10220667D01*
X3497143Y-10268286D01*
X3487619Y-10306381D01*
X3478095Y-10325429D01*
X3468571Y-10334952D01*
X3449524Y-10344476D01*
X3430476Y-10344476D01*
X3411428Y-10334952D01*
X3401905Y-10325429D01*
X3392381Y-10306381D01*
X3382857Y-10268286D01*
X3382857Y-10220667D01*
X3392381Y-10182571D01*
X3401905Y-10163524D01*
X3411428Y-10154000D01*
X3430476Y-10144476D01*
X3582857Y-10325429D02*
X3592381Y-10334952D01*
X3582857Y-10344476D01*
X3573333Y-10334952D01*
X3582857Y-10325429D01*
X3582857Y-10344476D01*
X3716190Y-10144476D02*
X3735238Y-10144476D01*
X3754286Y-10154000D01*
X3763809Y-10163524D01*
X3773333Y-10182571D01*
X3782857Y-10220667D01*
X3782857Y-10268286D01*
X3773333Y-10306381D01*
X3763809Y-10325429D01*
X3754286Y-10334952D01*
X3735238Y-10344476D01*
X3716190Y-10344476D01*
X3697143Y-10334952D01*
X3687619Y-10325429D01*
X3678095Y-10306381D01*
X3668571Y-10268286D01*
X3668571Y-10220667D01*
X3678095Y-10182571D01*
X3687619Y-10163524D01*
X3697143Y-10154000D01*
X3716190Y-10144476D01*
X3849524Y-10144476D02*
X3973333Y-10144476D01*
X3906667Y-10220667D01*
X3935238Y-10220667D01*
X3954286Y-10230190D01*
X3963809Y-10239714D01*
X3973333Y-10258762D01*
X3973333Y-10306381D01*
X3963809Y-10325429D01*
X3954286Y-10334952D01*
X3935238Y-10344476D01*
X3878095Y-10344476D01*
X3859048Y-10334952D01*
X3849524Y-10325429D01*
X4163809Y-10344476D02*
X4049524Y-10344476D01*
X4106667Y-10344476D02*
X4106667Y-10144476D01*
X4087619Y-10173048D01*
X4068571Y-10192095D01*
X4049524Y-10201619D01*
X4344762Y-10144476D02*
X4249524Y-10144476D01*
X4240000Y-10239714D01*
X4249524Y-10230190D01*
X4268571Y-10220667D01*
X4316190Y-10220667D01*
X4335238Y-10230190D01*
X4344762Y-10239714D01*
X4354286Y-10258762D01*
X4354286Y-10306381D01*
X4344762Y-10325429D01*
X4335238Y-10334952D01*
X4316190Y-10344476D01*
X4268571Y-10344476D01*
X4249524Y-10334952D01*
X4240000Y-10325429D01*
X4430476Y-10144476D02*
X4430476Y-10182571D01*
X4506667Y-10144476D02*
X4506667Y-10182571D01*
X4801905Y-10420667D02*
X4792381Y-10411143D01*
X4773333Y-10382571D01*
X4763810Y-10363524D01*
X4754286Y-10334952D01*
X4744762Y-10287333D01*
X4744762Y-10249238D01*
X4754286Y-10201619D01*
X4763810Y-10173048D01*
X4773333Y-10154000D01*
X4792381Y-10125429D01*
X4801905Y-10115905D01*
X4868571Y-10163524D02*
X4878095Y-10154000D01*
X4897143Y-10144476D01*
X4944762Y-10144476D01*
X4963810Y-10154000D01*
X4973333Y-10163524D01*
X4982857Y-10182571D01*
X4982857Y-10201619D01*
X4973333Y-10230190D01*
X4859048Y-10344476D01*
X4982857Y-10344476D01*
X5097143Y-10230190D02*
X5078095Y-10220667D01*
X5068571Y-10211143D01*
X5059048Y-10192095D01*
X5059048Y-10182571D01*
X5068571Y-10163524D01*
X5078095Y-10154000D01*
X5097143Y-10144476D01*
X5135238Y-10144476D01*
X5154286Y-10154000D01*
X5163810Y-10163524D01*
X5173333Y-10182571D01*
X5173333Y-10192095D01*
X5163810Y-10211143D01*
X5154286Y-10220667D01*
X5135238Y-10230190D01*
X5097143Y-10230190D01*
X5078095Y-10239714D01*
X5068571Y-10249238D01*
X5059048Y-10268286D01*
X5059048Y-10306381D01*
X5068571Y-10325429D01*
X5078095Y-10334952D01*
X5097143Y-10344476D01*
X5135238Y-10344476D01*
X5154286Y-10334952D01*
X5163810Y-10325429D01*
X5173333Y-10306381D01*
X5173333Y-10268286D01*
X5163810Y-10249238D01*
X5154286Y-10239714D01*
X5135238Y-10230190D01*
X5411429Y-10344476D02*
X5411429Y-10144476D01*
X5497143Y-10344476D02*
X5497143Y-10239714D01*
X5487619Y-10220667D01*
X5468571Y-10211143D01*
X5440000Y-10211143D01*
X5420952Y-10220667D01*
X5411429Y-10230190D01*
X5620952Y-10344476D02*
X5601905Y-10334952D01*
X5592381Y-10325429D01*
X5582857Y-10306381D01*
X5582857Y-10249238D01*
X5592381Y-10230190D01*
X5601905Y-10220667D01*
X5620952Y-10211143D01*
X5649524Y-10211143D01*
X5668571Y-10220667D01*
X5678095Y-10230190D01*
X5687619Y-10249238D01*
X5687619Y-10306381D01*
X5678095Y-10325429D01*
X5668571Y-10334952D01*
X5649524Y-10344476D01*
X5620952Y-10344476D01*
X5801905Y-10344476D02*
X5782857Y-10334952D01*
X5773333Y-10315905D01*
X5773333Y-10144476D01*
X5954286Y-10334952D02*
X5935238Y-10344476D01*
X5897143Y-10344476D01*
X5878095Y-10334952D01*
X5868571Y-10315905D01*
X5868571Y-10239714D01*
X5878095Y-10220667D01*
X5897143Y-10211143D01*
X5935238Y-10211143D01*
X5954286Y-10220667D01*
X5963809Y-10239714D01*
X5963809Y-10258762D01*
X5868571Y-10277810D01*
X6040000Y-10334952D02*
X6059048Y-10344476D01*
X6097143Y-10344476D01*
X6116190Y-10334952D01*
X6125714Y-10315905D01*
X6125714Y-10306381D01*
X6116190Y-10287333D01*
X6097143Y-10277810D01*
X6068571Y-10277810D01*
X6049524Y-10268286D01*
X6040000Y-10249238D01*
X6040000Y-10239714D01*
X6049524Y-10220667D01*
X6068571Y-10211143D01*
X6097143Y-10211143D01*
X6116190Y-10220667D01*
X6192381Y-10420667D02*
X6201905Y-10411143D01*
X6220952Y-10382571D01*
X6230476Y-10363524D01*
X6240000Y-10334952D01*
X6249524Y-10287333D01*
X6249524Y-10249238D01*
X6240000Y-10201619D01*
X6230476Y-10173048D01*
X6220952Y-10154000D01*
X6201905Y-10125429D01*
X6192381Y-10115905D01*
D13*
X1180000Y-10468000D02*
X1180000Y-10568000D01*
X1130000Y-10518000D02*
X1230000Y-10518000D01*
D10*
X1592381Y-10608476D02*
X1478095Y-10608476D01*
X1535238Y-10608476D02*
X1535238Y-10408476D01*
X1516190Y-10437048D01*
X1497143Y-10456095D01*
X1478095Y-10465619D01*
X1678095Y-10589429D02*
X1687619Y-10598952D01*
X1678095Y-10608476D01*
X1668571Y-10598952D01*
X1678095Y-10589429D01*
X1678095Y-10608476D01*
X1811428Y-10408476D02*
X1830476Y-10408476D01*
X1849524Y-10418000D01*
X1859048Y-10427524D01*
X1868571Y-10446571D01*
X1878095Y-10484667D01*
X1878095Y-10532286D01*
X1868571Y-10570381D01*
X1859048Y-10589429D01*
X1849524Y-10598952D01*
X1830476Y-10608476D01*
X1811428Y-10608476D01*
X1792381Y-10598952D01*
X1782857Y-10589429D01*
X1773333Y-10570381D01*
X1763809Y-10532286D01*
X1763809Y-10484667D01*
X1773333Y-10446571D01*
X1782857Y-10427524D01*
X1792381Y-10418000D01*
X1811428Y-10408476D01*
X2001905Y-10408476D02*
X2020952Y-10408476D01*
X2040000Y-10418000D01*
X2049524Y-10427524D01*
X2059048Y-10446571D01*
X2068571Y-10484667D01*
X2068571Y-10532286D01*
X2059048Y-10570381D01*
X2049524Y-10589429D01*
X2040000Y-10598952D01*
X2020952Y-10608476D01*
X2001905Y-10608476D01*
X1982857Y-10598952D01*
X1973333Y-10589429D01*
X1963809Y-10570381D01*
X1954286Y-10532286D01*
X1954286Y-10484667D01*
X1963809Y-10446571D01*
X1973333Y-10427524D01*
X1982857Y-10418000D01*
X2001905Y-10408476D01*
X2192381Y-10408476D02*
X2211429Y-10408476D01*
X2230476Y-10418000D01*
X2240000Y-10427524D01*
X2249524Y-10446571D01*
X2259048Y-10484667D01*
X2259048Y-10532286D01*
X2249524Y-10570381D01*
X2240000Y-10589429D01*
X2230476Y-10598952D01*
X2211429Y-10608476D01*
X2192381Y-10608476D01*
X2173333Y-10598952D01*
X2163810Y-10589429D01*
X2154286Y-10570381D01*
X2144762Y-10532286D01*
X2144762Y-10484667D01*
X2154286Y-10446571D01*
X2163810Y-10427524D01*
X2173333Y-10418000D01*
X2192381Y-10408476D01*
X2344762Y-10608476D02*
X2344762Y-10475143D01*
X2344762Y-10494190D02*
X2354286Y-10484667D01*
X2373333Y-10475143D01*
X2401905Y-10475143D01*
X2420952Y-10484667D01*
X2430476Y-10503714D01*
X2430476Y-10608476D01*
X2430476Y-10503714D02*
X2440000Y-10484667D01*
X2459048Y-10475143D01*
X2487619Y-10475143D01*
X2506667Y-10484667D01*
X2516190Y-10503714D01*
X2516190Y-10608476D01*
X2611429Y-10608476D02*
X2611429Y-10475143D01*
X2611429Y-10494190D02*
X2620952Y-10484667D01*
X2640000Y-10475143D01*
X2668571Y-10475143D01*
X2687619Y-10484667D01*
X2697143Y-10503714D01*
X2697143Y-10608476D01*
X2697143Y-10503714D02*
X2706667Y-10484667D01*
X2725714Y-10475143D01*
X2754286Y-10475143D01*
X2773333Y-10484667D01*
X2782857Y-10503714D01*
X2782857Y-10608476D01*
X3173333Y-10398952D02*
X3001905Y-10656095D01*
X3430476Y-10408476D02*
X3449524Y-10408476D01*
X3468571Y-10418000D01*
X3478095Y-10427524D01*
X3487619Y-10446571D01*
X3497143Y-10484667D01*
X3497143Y-10532286D01*
X3487619Y-10570381D01*
X3478095Y-10589429D01*
X3468571Y-10598952D01*
X3449524Y-10608476D01*
X3430476Y-10608476D01*
X3411428Y-10598952D01*
X3401905Y-10589429D01*
X3392381Y-10570381D01*
X3382857Y-10532286D01*
X3382857Y-10484667D01*
X3392381Y-10446571D01*
X3401905Y-10427524D01*
X3411428Y-10418000D01*
X3430476Y-10408476D01*
X3582857Y-10589429D02*
X3592381Y-10598952D01*
X3582857Y-10608476D01*
X3573333Y-10598952D01*
X3582857Y-10589429D01*
X3582857Y-10608476D01*
X3716190Y-10408476D02*
X3735238Y-10408476D01*
X3754286Y-10418000D01*
X3763809Y-10427524D01*
X3773333Y-10446571D01*
X3782857Y-10484667D01*
X3782857Y-10532286D01*
X3773333Y-10570381D01*
X3763809Y-10589429D01*
X3754286Y-10598952D01*
X3735238Y-10608476D01*
X3716190Y-10608476D01*
X3697143Y-10598952D01*
X3687619Y-10589429D01*
X3678095Y-10570381D01*
X3668571Y-10532286D01*
X3668571Y-10484667D01*
X3678095Y-10446571D01*
X3687619Y-10427524D01*
X3697143Y-10418000D01*
X3716190Y-10408476D01*
X3849524Y-10408476D02*
X3973333Y-10408476D01*
X3906667Y-10484667D01*
X3935238Y-10484667D01*
X3954286Y-10494190D01*
X3963809Y-10503714D01*
X3973333Y-10522762D01*
X3973333Y-10570381D01*
X3963809Y-10589429D01*
X3954286Y-10598952D01*
X3935238Y-10608476D01*
X3878095Y-10608476D01*
X3859048Y-10598952D01*
X3849524Y-10589429D01*
X4068571Y-10608476D02*
X4106667Y-10608476D01*
X4125714Y-10598952D01*
X4135238Y-10589429D01*
X4154286Y-10560857D01*
X4163809Y-10522762D01*
X4163809Y-10446571D01*
X4154286Y-10427524D01*
X4144762Y-10418000D01*
X4125714Y-10408476D01*
X4087619Y-10408476D01*
X4068571Y-10418000D01*
X4059048Y-10427524D01*
X4049524Y-10446571D01*
X4049524Y-10494190D01*
X4059048Y-10513238D01*
X4068571Y-10522762D01*
X4087619Y-10532286D01*
X4125714Y-10532286D01*
X4144762Y-10522762D01*
X4154286Y-10513238D01*
X4163809Y-10494190D01*
X4335238Y-10475143D02*
X4335238Y-10608476D01*
X4287619Y-10398952D02*
X4240000Y-10541810D01*
X4363810Y-10541810D01*
X4430476Y-10408476D02*
X4430476Y-10446571D01*
X4506667Y-10408476D02*
X4506667Y-10446571D01*
X4801905Y-10684667D02*
X4792381Y-10675143D01*
X4773333Y-10646571D01*
X4763810Y-10627524D01*
X4754286Y-10598952D01*
X4744762Y-10551333D01*
X4744762Y-10513238D01*
X4754286Y-10465619D01*
X4763810Y-10437048D01*
X4773333Y-10418000D01*
X4792381Y-10389429D01*
X4801905Y-10379905D01*
X4973333Y-10408476D02*
X4878095Y-10408476D01*
X4868571Y-10503714D01*
X4878095Y-10494190D01*
X4897143Y-10484667D01*
X4944762Y-10484667D01*
X4963810Y-10494190D01*
X4973333Y-10503714D01*
X4982857Y-10522762D01*
X4982857Y-10570381D01*
X4973333Y-10589429D01*
X4963810Y-10598952D01*
X4944762Y-10608476D01*
X4897143Y-10608476D01*
X4878095Y-10598952D01*
X4868571Y-10589429D01*
X5106667Y-10408476D02*
X5125714Y-10408476D01*
X5144762Y-10418000D01*
X5154286Y-10427524D01*
X5163810Y-10446571D01*
X5173333Y-10484667D01*
X5173333Y-10532286D01*
X5163810Y-10570381D01*
X5154286Y-10589429D01*
X5144762Y-10598952D01*
X5125714Y-10608476D01*
X5106667Y-10608476D01*
X5087619Y-10598952D01*
X5078095Y-10589429D01*
X5068571Y-10570381D01*
X5059048Y-10532286D01*
X5059048Y-10484667D01*
X5068571Y-10446571D01*
X5078095Y-10427524D01*
X5087619Y-10418000D01*
X5106667Y-10408476D01*
X5411429Y-10608476D02*
X5411429Y-10408476D01*
X5497143Y-10608476D02*
X5497143Y-10503714D01*
X5487619Y-10484667D01*
X5468571Y-10475143D01*
X5440000Y-10475143D01*
X5420952Y-10484667D01*
X5411429Y-10494190D01*
X5620952Y-10608476D02*
X5601905Y-10598952D01*
X5592381Y-10589429D01*
X5582857Y-10570381D01*
X5582857Y-10513238D01*
X5592381Y-10494190D01*
X5601905Y-10484667D01*
X5620952Y-10475143D01*
X5649524Y-10475143D01*
X5668571Y-10484667D01*
X5678095Y-10494190D01*
X5687619Y-10513238D01*
X5687619Y-10570381D01*
X5678095Y-10589429D01*
X5668571Y-10598952D01*
X5649524Y-10608476D01*
X5620952Y-10608476D01*
X5801905Y-10608476D02*
X5782857Y-10598952D01*
X5773333Y-10579905D01*
X5773333Y-10408476D01*
X5954286Y-10598952D02*
X5935238Y-10608476D01*
X5897143Y-10608476D01*
X5878095Y-10598952D01*
X5868571Y-10579905D01*
X5868571Y-10503714D01*
X5878095Y-10484667D01*
X5897143Y-10475143D01*
X5935238Y-10475143D01*
X5954286Y-10484667D01*
X5963809Y-10503714D01*
X5963809Y-10522762D01*
X5868571Y-10541810D01*
X6040000Y-10598952D02*
X6059048Y-10608476D01*
X6097143Y-10608476D01*
X6116190Y-10598952D01*
X6125714Y-10579905D01*
X6125714Y-10570381D01*
X6116190Y-10551333D01*
X6097143Y-10541810D01*
X6068571Y-10541810D01*
X6049524Y-10532286D01*
X6040000Y-10513238D01*
X6040000Y-10503714D01*
X6049524Y-10484667D01*
X6068571Y-10475143D01*
X6097143Y-10475143D01*
X6116190Y-10484667D01*
X6192381Y-10684667D02*
X6201905Y-10675143D01*
X6220952Y-10646571D01*
X6230476Y-10627524D01*
X6240000Y-10598952D01*
X6249524Y-10551333D01*
X6249524Y-10513238D01*
X6240000Y-10465619D01*
X6230476Y-10437048D01*
X6220952Y-10418000D01*
X6201905Y-10389429D01*
X6192381Y-10379905D01*
D14*
X1213891Y-10820891D02*
X1213891Y-10743109D01*
X1136109Y-10743109D01*
X1136109Y-10820891D01*
X1213891Y-10820891D01*
D10*
X1592381Y-10872476D02*
X1478095Y-10872476D01*
X1535238Y-10872476D02*
X1535238Y-10672476D01*
X1516190Y-10701048D01*
X1497143Y-10720095D01*
X1478095Y-10729619D01*
X1678095Y-10853429D02*
X1687619Y-10862952D01*
X1678095Y-10872476D01*
X1668571Y-10862952D01*
X1678095Y-10853429D01*
X1678095Y-10872476D01*
X1878095Y-10872476D02*
X1763809Y-10872476D01*
X1820952Y-10872476D02*
X1820952Y-10672476D01*
X1801905Y-10701048D01*
X1782857Y-10720095D01*
X1763809Y-10729619D01*
X2001905Y-10672476D02*
X2020952Y-10672476D01*
X2040000Y-10682000D01*
X2049524Y-10691524D01*
X2059048Y-10710571D01*
X2068571Y-10748667D01*
X2068571Y-10796286D01*
X2059048Y-10834381D01*
X2049524Y-10853429D01*
X2040000Y-10862952D01*
X2020952Y-10872476D01*
X2001905Y-10872476D01*
X1982857Y-10862952D01*
X1973333Y-10853429D01*
X1963809Y-10834381D01*
X1954286Y-10796286D01*
X1954286Y-10748667D01*
X1963809Y-10710571D01*
X1973333Y-10691524D01*
X1982857Y-10682000D01*
X2001905Y-10672476D01*
X2192381Y-10672476D02*
X2211429Y-10672476D01*
X2230476Y-10682000D01*
X2240000Y-10691524D01*
X2249524Y-10710571D01*
X2259048Y-10748667D01*
X2259048Y-10796286D01*
X2249524Y-10834381D01*
X2240000Y-10853429D01*
X2230476Y-10862952D01*
X2211429Y-10872476D01*
X2192381Y-10872476D01*
X2173333Y-10862952D01*
X2163810Y-10853429D01*
X2154286Y-10834381D01*
X2144762Y-10796286D01*
X2144762Y-10748667D01*
X2154286Y-10710571D01*
X2163810Y-10691524D01*
X2173333Y-10682000D01*
X2192381Y-10672476D01*
X2344762Y-10872476D02*
X2344762Y-10739143D01*
X2344762Y-10758190D02*
X2354286Y-10748667D01*
X2373333Y-10739143D01*
X2401905Y-10739143D01*
X2420952Y-10748667D01*
X2430476Y-10767714D01*
X2430476Y-10872476D01*
X2430476Y-10767714D02*
X2440000Y-10748667D01*
X2459048Y-10739143D01*
X2487619Y-10739143D01*
X2506667Y-10748667D01*
X2516190Y-10767714D01*
X2516190Y-10872476D01*
X2611429Y-10872476D02*
X2611429Y-10739143D01*
X2611429Y-10758190D02*
X2620952Y-10748667D01*
X2640000Y-10739143D01*
X2668571Y-10739143D01*
X2687619Y-10748667D01*
X2697143Y-10767714D01*
X2697143Y-10872476D01*
X2697143Y-10767714D02*
X2706667Y-10748667D01*
X2725714Y-10739143D01*
X2754286Y-10739143D01*
X2773333Y-10748667D01*
X2782857Y-10767714D01*
X2782857Y-10872476D01*
X3173333Y-10662952D02*
X3001905Y-10920095D01*
X3430476Y-10672476D02*
X3449524Y-10672476D01*
X3468571Y-10682000D01*
X3478095Y-10691524D01*
X3487619Y-10710571D01*
X3497143Y-10748667D01*
X3497143Y-10796286D01*
X3487619Y-10834381D01*
X3478095Y-10853429D01*
X3468571Y-10862952D01*
X3449524Y-10872476D01*
X3430476Y-10872476D01*
X3411428Y-10862952D01*
X3401905Y-10853429D01*
X3392381Y-10834381D01*
X3382857Y-10796286D01*
X3382857Y-10748667D01*
X3392381Y-10710571D01*
X3401905Y-10691524D01*
X3411428Y-10682000D01*
X3430476Y-10672476D01*
X3582857Y-10853429D02*
X3592381Y-10862952D01*
X3582857Y-10872476D01*
X3573333Y-10862952D01*
X3582857Y-10853429D01*
X3582857Y-10872476D01*
X3716190Y-10672476D02*
X3735238Y-10672476D01*
X3754286Y-10682000D01*
X3763809Y-10691524D01*
X3773333Y-10710571D01*
X3782857Y-10748667D01*
X3782857Y-10796286D01*
X3773333Y-10834381D01*
X3763809Y-10853429D01*
X3754286Y-10862952D01*
X3735238Y-10872476D01*
X3716190Y-10872476D01*
X3697143Y-10862952D01*
X3687619Y-10853429D01*
X3678095Y-10834381D01*
X3668571Y-10796286D01*
X3668571Y-10748667D01*
X3678095Y-10710571D01*
X3687619Y-10691524D01*
X3697143Y-10682000D01*
X3716190Y-10672476D01*
X3954286Y-10739143D02*
X3954286Y-10872476D01*
X3906667Y-10662952D02*
X3859048Y-10805810D01*
X3982857Y-10805810D01*
X4040000Y-10672476D02*
X4163809Y-10672476D01*
X4097143Y-10748667D01*
X4125714Y-10748667D01*
X4144762Y-10758190D01*
X4154286Y-10767714D01*
X4163809Y-10786762D01*
X4163809Y-10834381D01*
X4154286Y-10853429D01*
X4144762Y-10862952D01*
X4125714Y-10872476D01*
X4068571Y-10872476D01*
X4049524Y-10862952D01*
X4040000Y-10853429D01*
X4230476Y-10672476D02*
X4354286Y-10672476D01*
X4287619Y-10748667D01*
X4316190Y-10748667D01*
X4335238Y-10758190D01*
X4344762Y-10767714D01*
X4354286Y-10786762D01*
X4354286Y-10834381D01*
X4344762Y-10853429D01*
X4335238Y-10862952D01*
X4316190Y-10872476D01*
X4259048Y-10872476D01*
X4240000Y-10862952D01*
X4230476Y-10853429D01*
X4430476Y-10672476D02*
X4430476Y-10710571D01*
X4506667Y-10672476D02*
X4506667Y-10710571D01*
X4801905Y-10948667D02*
X4792381Y-10939143D01*
X4773333Y-10910571D01*
X4763810Y-10891524D01*
X4754286Y-10862952D01*
X4744762Y-10815333D01*
X4744762Y-10777238D01*
X4754286Y-10729619D01*
X4763810Y-10701048D01*
X4773333Y-10682000D01*
X4792381Y-10653429D01*
X4801905Y-10643905D01*
X4982857Y-10872476D02*
X4868571Y-10872476D01*
X4925714Y-10872476D02*
X4925714Y-10672476D01*
X4906667Y-10701048D01*
X4887619Y-10720095D01*
X4868571Y-10729619D01*
X5173333Y-10872476D02*
X5059048Y-10872476D01*
X5116190Y-10872476D02*
X5116190Y-10672476D01*
X5097143Y-10701048D01*
X5078095Y-10720095D01*
X5059048Y-10729619D01*
X5411429Y-10872476D02*
X5411429Y-10672476D01*
X5497143Y-10872476D02*
X5497143Y-10767714D01*
X5487619Y-10748667D01*
X5468571Y-10739143D01*
X5440000Y-10739143D01*
X5420952Y-10748667D01*
X5411429Y-10758190D01*
X5620952Y-10872476D02*
X5601905Y-10862952D01*
X5592381Y-10853429D01*
X5582857Y-10834381D01*
X5582857Y-10777238D01*
X5592381Y-10758190D01*
X5601905Y-10748667D01*
X5620952Y-10739143D01*
X5649524Y-10739143D01*
X5668571Y-10748667D01*
X5678095Y-10758190D01*
X5687619Y-10777238D01*
X5687619Y-10834381D01*
X5678095Y-10853429D01*
X5668571Y-10862952D01*
X5649524Y-10872476D01*
X5620952Y-10872476D01*
X5801905Y-10872476D02*
X5782857Y-10862952D01*
X5773333Y-10843905D01*
X5773333Y-10672476D01*
X5954286Y-10862952D02*
X5935238Y-10872476D01*
X5897143Y-10872476D01*
X5878095Y-10862952D01*
X5868571Y-10843905D01*
X5868571Y-10767714D01*
X5878095Y-10748667D01*
X5897143Y-10739143D01*
X5935238Y-10739143D01*
X5954286Y-10748667D01*
X5963809Y-10767714D01*
X5963809Y-10786762D01*
X5868571Y-10805810D01*
X6040000Y-10862952D02*
X6059048Y-10872476D01*
X6097143Y-10872476D01*
X6116190Y-10862952D01*
X6125714Y-10843905D01*
X6125714Y-10834381D01*
X6116190Y-10815333D01*
X6097143Y-10805810D01*
X6068571Y-10805810D01*
X6049524Y-10796286D01*
X6040000Y-10777238D01*
X6040000Y-10767714D01*
X6049524Y-10748667D01*
X6068571Y-10739143D01*
X6097143Y-10739143D01*
X6116190Y-10748667D01*
X6192381Y-10948667D02*
X6201905Y-10939143D01*
X6220952Y-10910571D01*
X6230476Y-10891524D01*
X6240000Y-10862952D01*
X6249524Y-10815333D01*
X6249524Y-10777238D01*
X6240000Y-10729619D01*
X6230476Y-10701048D01*
X6220952Y-10682000D01*
X6201905Y-10653429D01*
X6192381Y-10643905D01*
D15*
X1170000Y-11106000D02*
X1230000Y-11046000D01*
X1170000Y-10986000D01*
X1110000Y-11046000D01*
X1170000Y-11106000D01*
D10*
X1592381Y-11136476D02*
X1478095Y-11136476D01*
X1535238Y-11136476D02*
X1535238Y-10936476D01*
X1516190Y-10965048D01*
X1497143Y-10984095D01*
X1478095Y-10993619D01*
X1678095Y-11117429D02*
X1687619Y-11126952D01*
X1678095Y-11136476D01*
X1668571Y-11126952D01*
X1678095Y-11117429D01*
X1678095Y-11136476D01*
X1763809Y-10955524D02*
X1773333Y-10946000D01*
X1792381Y-10936476D01*
X1840000Y-10936476D01*
X1859048Y-10946000D01*
X1868571Y-10955524D01*
X1878095Y-10974571D01*
X1878095Y-10993619D01*
X1868571Y-11022190D01*
X1754286Y-11136476D01*
X1878095Y-11136476D01*
X2001905Y-10936476D02*
X2020952Y-10936476D01*
X2040000Y-10946000D01*
X2049524Y-10955524D01*
X2059048Y-10974571D01*
X2068571Y-11012667D01*
X2068571Y-11060286D01*
X2059048Y-11098381D01*
X2049524Y-11117429D01*
X2040000Y-11126952D01*
X2020952Y-11136476D01*
X2001905Y-11136476D01*
X1982857Y-11126952D01*
X1973333Y-11117429D01*
X1963809Y-11098381D01*
X1954286Y-11060286D01*
X1954286Y-11012667D01*
X1963809Y-10974571D01*
X1973333Y-10955524D01*
X1982857Y-10946000D01*
X2001905Y-10936476D01*
X2192381Y-10936476D02*
X2211429Y-10936476D01*
X2230476Y-10946000D01*
X2240000Y-10955524D01*
X2249524Y-10974571D01*
X2259048Y-11012667D01*
X2259048Y-11060286D01*
X2249524Y-11098381D01*
X2240000Y-11117429D01*
X2230476Y-11126952D01*
X2211429Y-11136476D01*
X2192381Y-11136476D01*
X2173333Y-11126952D01*
X2163810Y-11117429D01*
X2154286Y-11098381D01*
X2144762Y-11060286D01*
X2144762Y-11012667D01*
X2154286Y-10974571D01*
X2163810Y-10955524D01*
X2173333Y-10946000D01*
X2192381Y-10936476D01*
X2344762Y-11136476D02*
X2344762Y-11003143D01*
X2344762Y-11022190D02*
X2354286Y-11012667D01*
X2373333Y-11003143D01*
X2401905Y-11003143D01*
X2420952Y-11012667D01*
X2430476Y-11031714D01*
X2430476Y-11136476D01*
X2430476Y-11031714D02*
X2440000Y-11012667D01*
X2459048Y-11003143D01*
X2487619Y-11003143D01*
X2506667Y-11012667D01*
X2516190Y-11031714D01*
X2516190Y-11136476D01*
X2611429Y-11136476D02*
X2611429Y-11003143D01*
X2611429Y-11022190D02*
X2620952Y-11012667D01*
X2640000Y-11003143D01*
X2668571Y-11003143D01*
X2687619Y-11012667D01*
X2697143Y-11031714D01*
X2697143Y-11136476D01*
X2697143Y-11031714D02*
X2706667Y-11012667D01*
X2725714Y-11003143D01*
X2754286Y-11003143D01*
X2773333Y-11012667D01*
X2782857Y-11031714D01*
X2782857Y-11136476D01*
X3173333Y-10926952D02*
X3001905Y-11184095D01*
X3430476Y-10936476D02*
X3449524Y-10936476D01*
X3468571Y-10946000D01*
X3478095Y-10955524D01*
X3487619Y-10974571D01*
X3497143Y-11012667D01*
X3497143Y-11060286D01*
X3487619Y-11098381D01*
X3478095Y-11117429D01*
X3468571Y-11126952D01*
X3449524Y-11136476D01*
X3430476Y-11136476D01*
X3411428Y-11126952D01*
X3401905Y-11117429D01*
X3392381Y-11098381D01*
X3382857Y-11060286D01*
X3382857Y-11012667D01*
X3392381Y-10974571D01*
X3401905Y-10955524D01*
X3411428Y-10946000D01*
X3430476Y-10936476D01*
X3582857Y-11117429D02*
X3592381Y-11126952D01*
X3582857Y-11136476D01*
X3573333Y-11126952D01*
X3582857Y-11117429D01*
X3582857Y-11136476D01*
X3716190Y-10936476D02*
X3735238Y-10936476D01*
X3754286Y-10946000D01*
X3763809Y-10955524D01*
X3773333Y-10974571D01*
X3782857Y-11012667D01*
X3782857Y-11060286D01*
X3773333Y-11098381D01*
X3763809Y-11117429D01*
X3754286Y-11126952D01*
X3735238Y-11136476D01*
X3716190Y-11136476D01*
X3697143Y-11126952D01*
X3687619Y-11117429D01*
X3678095Y-11098381D01*
X3668571Y-11060286D01*
X3668571Y-11012667D01*
X3678095Y-10974571D01*
X3687619Y-10955524D01*
X3697143Y-10946000D01*
X3716190Y-10936476D01*
X3954286Y-11003143D02*
X3954286Y-11136476D01*
X3906667Y-10926952D02*
X3859048Y-11069810D01*
X3982857Y-11069810D01*
X4040000Y-10936476D02*
X4173333Y-10936476D01*
X4087619Y-11136476D01*
X4240000Y-10955524D02*
X4249524Y-10946000D01*
X4268571Y-10936476D01*
X4316190Y-10936476D01*
X4335238Y-10946000D01*
X4344762Y-10955524D01*
X4354286Y-10974571D01*
X4354286Y-10993619D01*
X4344762Y-11022190D01*
X4230476Y-11136476D01*
X4354286Y-11136476D01*
X4430476Y-10936476D02*
X4430476Y-10974571D01*
X4506667Y-10936476D02*
X4506667Y-10974571D01*
X4801905Y-11212667D02*
X4792381Y-11203143D01*
X4773333Y-11174571D01*
X4763810Y-11155524D01*
X4754286Y-11126952D01*
X4744762Y-11079333D01*
X4744762Y-11041238D01*
X4754286Y-10993619D01*
X4763810Y-10965048D01*
X4773333Y-10946000D01*
X4792381Y-10917429D01*
X4801905Y-10907905D01*
X4868571Y-10955524D02*
X4878095Y-10946000D01*
X4897143Y-10936476D01*
X4944762Y-10936476D01*
X4963810Y-10946000D01*
X4973333Y-10955524D01*
X4982857Y-10974571D01*
X4982857Y-10993619D01*
X4973333Y-11022190D01*
X4859048Y-11136476D01*
X4982857Y-11136476D01*
X5220952Y-11136476D02*
X5220952Y-10936476D01*
X5306667Y-11136476D02*
X5306667Y-11031714D01*
X5297143Y-11012667D01*
X5278095Y-11003143D01*
X5249524Y-11003143D01*
X5230476Y-11012667D01*
X5220952Y-11022190D01*
X5430476Y-11136476D02*
X5411429Y-11126952D01*
X5401905Y-11117429D01*
X5392381Y-11098381D01*
X5392381Y-11041238D01*
X5401905Y-11022190D01*
X5411429Y-11012667D01*
X5430476Y-11003143D01*
X5459048Y-11003143D01*
X5478095Y-11012667D01*
X5487619Y-11022190D01*
X5497143Y-11041238D01*
X5497143Y-11098381D01*
X5487619Y-11117429D01*
X5478095Y-11126952D01*
X5459048Y-11136476D01*
X5430476Y-11136476D01*
X5611428Y-11136476D02*
X5592381Y-11126952D01*
X5582857Y-11107905D01*
X5582857Y-10936476D01*
X5763809Y-11126952D02*
X5744762Y-11136476D01*
X5706667Y-11136476D01*
X5687619Y-11126952D01*
X5678095Y-11107905D01*
X5678095Y-11031714D01*
X5687619Y-11012667D01*
X5706667Y-11003143D01*
X5744762Y-11003143D01*
X5763809Y-11012667D01*
X5773333Y-11031714D01*
X5773333Y-11050762D01*
X5678095Y-11069810D01*
X5849524Y-11126952D02*
X5868571Y-11136476D01*
X5906667Y-11136476D01*
X5925714Y-11126952D01*
X5935238Y-11107905D01*
X5935238Y-11098381D01*
X5925714Y-11079333D01*
X5906667Y-11069810D01*
X5878095Y-11069810D01*
X5859048Y-11060286D01*
X5849524Y-11041238D01*
X5849524Y-11031714D01*
X5859048Y-11012667D01*
X5878095Y-11003143D01*
X5906667Y-11003143D01*
X5925714Y-11012667D01*
X6001905Y-11212667D02*
X6011428Y-11203143D01*
X6030476Y-11174571D01*
X6040000Y-11155524D01*
X6049524Y-11126952D01*
X6059048Y-11079333D01*
X6059048Y-11041238D01*
X6049524Y-10993619D01*
X6040000Y-10965048D01*
X6030476Y-10946000D01*
X6011428Y-10917429D01*
X6001905Y-10907905D01*
D16*
X1100000Y-11245000D02*
X1230000Y-11375000D01*
X1230000Y-11245000D02*
X1100000Y-11375000D01*
X1230000Y-11310000D02*
G75*
G03*
X1230000Y-11310000I-65000J0D01*
G01*
D10*
X1592381Y-11400476D02*
X1478095Y-11400476D01*
X1535238Y-11400476D02*
X1535238Y-11200476D01*
X1516190Y-11229048D01*
X1497143Y-11248095D01*
X1478095Y-11257619D01*
X1678095Y-11381428D02*
X1687619Y-11390952D01*
X1678095Y-11400476D01*
X1668571Y-11390952D01*
X1678095Y-11381428D01*
X1678095Y-11400476D01*
X1754286Y-11200476D02*
X1878095Y-11200476D01*
X1811428Y-11276667D01*
X1840000Y-11276667D01*
X1859048Y-11286190D01*
X1868571Y-11295714D01*
X1878095Y-11314762D01*
X1878095Y-11362381D01*
X1868571Y-11381428D01*
X1859048Y-11390952D01*
X1840000Y-11400476D01*
X1782857Y-11400476D01*
X1763809Y-11390952D01*
X1754286Y-11381428D01*
X2001905Y-11200476D02*
X2020952Y-11200476D01*
X2040000Y-11210000D01*
X2049524Y-11219524D01*
X2059048Y-11238571D01*
X2068571Y-11276667D01*
X2068571Y-11324286D01*
X2059048Y-11362381D01*
X2049524Y-11381428D01*
X2040000Y-11390952D01*
X2020952Y-11400476D01*
X2001905Y-11400476D01*
X1982857Y-11390952D01*
X1973333Y-11381428D01*
X1963809Y-11362381D01*
X1954286Y-11324286D01*
X1954286Y-11276667D01*
X1963809Y-11238571D01*
X1973333Y-11219524D01*
X1982857Y-11210000D01*
X2001905Y-11200476D01*
X2192381Y-11200476D02*
X2211429Y-11200476D01*
X2230476Y-11210000D01*
X2240000Y-11219524D01*
X2249524Y-11238571D01*
X2259048Y-11276667D01*
X2259048Y-11324286D01*
X2249524Y-11362381D01*
X2240000Y-11381428D01*
X2230476Y-11390952D01*
X2211429Y-11400476D01*
X2192381Y-11400476D01*
X2173333Y-11390952D01*
X2163810Y-11381428D01*
X2154286Y-11362381D01*
X2144762Y-11324286D01*
X2144762Y-11276667D01*
X2154286Y-11238571D01*
X2163810Y-11219524D01*
X2173333Y-11210000D01*
X2192381Y-11200476D01*
X2344762Y-11400476D02*
X2344762Y-11267143D01*
X2344762Y-11286190D02*
X2354286Y-11276667D01*
X2373333Y-11267143D01*
X2401905Y-11267143D01*
X2420952Y-11276667D01*
X2430476Y-11295714D01*
X2430476Y-11400476D01*
X2430476Y-11295714D02*
X2440000Y-11276667D01*
X2459048Y-11267143D01*
X2487619Y-11267143D01*
X2506667Y-11276667D01*
X2516190Y-11295714D01*
X2516190Y-11400476D01*
X2611429Y-11400476D02*
X2611429Y-11267143D01*
X2611429Y-11286190D02*
X2620952Y-11276667D01*
X2640000Y-11267143D01*
X2668571Y-11267143D01*
X2687619Y-11276667D01*
X2697143Y-11295714D01*
X2697143Y-11400476D01*
X2697143Y-11295714D02*
X2706667Y-11276667D01*
X2725714Y-11267143D01*
X2754286Y-11267143D01*
X2773333Y-11276667D01*
X2782857Y-11295714D01*
X2782857Y-11400476D01*
X3173333Y-11190952D02*
X3001905Y-11448095D01*
X3430476Y-11200476D02*
X3449524Y-11200476D01*
X3468571Y-11210000D01*
X3478095Y-11219524D01*
X3487619Y-11238571D01*
X3497143Y-11276667D01*
X3497143Y-11324286D01*
X3487619Y-11362381D01*
X3478095Y-11381428D01*
X3468571Y-11390952D01*
X3449524Y-11400476D01*
X3430476Y-11400476D01*
X3411428Y-11390952D01*
X3401905Y-11381428D01*
X3392381Y-11362381D01*
X3382857Y-11324286D01*
X3382857Y-11276667D01*
X3392381Y-11238571D01*
X3401905Y-11219524D01*
X3411428Y-11210000D01*
X3430476Y-11200476D01*
X3582857Y-11381428D02*
X3592381Y-11390952D01*
X3582857Y-11400476D01*
X3573333Y-11390952D01*
X3582857Y-11381428D01*
X3582857Y-11400476D01*
X3716190Y-11200476D02*
X3735238Y-11200476D01*
X3754286Y-11210000D01*
X3763809Y-11219524D01*
X3773333Y-11238571D01*
X3782857Y-11276667D01*
X3782857Y-11324286D01*
X3773333Y-11362381D01*
X3763809Y-11381428D01*
X3754286Y-11390952D01*
X3735238Y-11400476D01*
X3716190Y-11400476D01*
X3697143Y-11390952D01*
X3687619Y-11381428D01*
X3678095Y-11362381D01*
X3668571Y-11324286D01*
X3668571Y-11276667D01*
X3678095Y-11238571D01*
X3687619Y-11219524D01*
X3697143Y-11210000D01*
X3716190Y-11200476D01*
X3963809Y-11200476D02*
X3868571Y-11200476D01*
X3859048Y-11295714D01*
X3868571Y-11286190D01*
X3887619Y-11276667D01*
X3935238Y-11276667D01*
X3954286Y-11286190D01*
X3963809Y-11295714D01*
X3973333Y-11314762D01*
X3973333Y-11362381D01*
X3963809Y-11381428D01*
X3954286Y-11390952D01*
X3935238Y-11400476D01*
X3887619Y-11400476D01*
X3868571Y-11390952D01*
X3859048Y-11381428D01*
X4163809Y-11400476D02*
X4049524Y-11400476D01*
X4106667Y-11400476D02*
X4106667Y-11200476D01*
X4087619Y-11229048D01*
X4068571Y-11248095D01*
X4049524Y-11257619D01*
X4240000Y-11219524D02*
X4249524Y-11210000D01*
X4268571Y-11200476D01*
X4316190Y-11200476D01*
X4335238Y-11210000D01*
X4344762Y-11219524D01*
X4354286Y-11238571D01*
X4354286Y-11257619D01*
X4344762Y-11286190D01*
X4230476Y-11400476D01*
X4354286Y-11400476D01*
X4430476Y-11200476D02*
X4430476Y-11238571D01*
X4506667Y-11200476D02*
X4506667Y-11238571D01*
X4801905Y-11476667D02*
X4792381Y-11467143D01*
X4773333Y-11438571D01*
X4763810Y-11419524D01*
X4754286Y-11390952D01*
X4744762Y-11343333D01*
X4744762Y-11305238D01*
X4754286Y-11257619D01*
X4763810Y-11229048D01*
X4773333Y-11210000D01*
X4792381Y-11181429D01*
X4801905Y-11171905D01*
X4963810Y-11267143D02*
X4963810Y-11400476D01*
X4916190Y-11190952D02*
X4868571Y-11333809D01*
X4992381Y-11333809D01*
X5220952Y-11400476D02*
X5220952Y-11200476D01*
X5306667Y-11400476D02*
X5306667Y-11295714D01*
X5297143Y-11276667D01*
X5278095Y-11267143D01*
X5249524Y-11267143D01*
X5230476Y-11276667D01*
X5220952Y-11286190D01*
X5430476Y-11400476D02*
X5411429Y-11390952D01*
X5401905Y-11381428D01*
X5392381Y-11362381D01*
X5392381Y-11305238D01*
X5401905Y-11286190D01*
X5411429Y-11276667D01*
X5430476Y-11267143D01*
X5459048Y-11267143D01*
X5478095Y-11276667D01*
X5487619Y-11286190D01*
X5497143Y-11305238D01*
X5497143Y-11362381D01*
X5487619Y-11381428D01*
X5478095Y-11390952D01*
X5459048Y-11400476D01*
X5430476Y-11400476D01*
X5611428Y-11400476D02*
X5592381Y-11390952D01*
X5582857Y-11371905D01*
X5582857Y-11200476D01*
X5763809Y-11390952D02*
X5744762Y-11400476D01*
X5706667Y-11400476D01*
X5687619Y-11390952D01*
X5678095Y-11371905D01*
X5678095Y-11295714D01*
X5687619Y-11276667D01*
X5706667Y-11267143D01*
X5744762Y-11267143D01*
X5763809Y-11276667D01*
X5773333Y-11295714D01*
X5773333Y-11314762D01*
X5678095Y-11333809D01*
X5849524Y-11390952D02*
X5868571Y-11400476D01*
X5906667Y-11400476D01*
X5925714Y-11390952D01*
X5935238Y-11371905D01*
X5935238Y-11362381D01*
X5925714Y-11343333D01*
X5906667Y-11333809D01*
X5878095Y-11333809D01*
X5859048Y-11324286D01*
X5849524Y-11305238D01*
X5849524Y-11295714D01*
X5859048Y-11276667D01*
X5878095Y-11267143D01*
X5906667Y-11267143D01*
X5925714Y-11276667D01*
X6001905Y-11476667D02*
X6011428Y-11467143D01*
X6030476Y-11438571D01*
X6040000Y-11419524D01*
X6049524Y-11390952D01*
X6059048Y-11343333D01*
X6059048Y-11305238D01*
X6049524Y-11257619D01*
X6040000Y-11229048D01*
X6030476Y-11210000D01*
X6011428Y-11181429D01*
X6001905Y-11171905D01*
D17*
X1090000Y-11504000D02*
X1230000Y-11644000D01*
X1230000Y-11504000D02*
X1090000Y-11644000D01*
X1160000Y-11504000D02*
X1160000Y-11644000D01*
X1090000Y-11574000D02*
X1230000Y-11574000D01*
D10*
X1592381Y-11664476D02*
X1478095Y-11664476D01*
X1535238Y-11664476D02*
X1535238Y-11464476D01*
X1516190Y-11493048D01*
X1497143Y-11512095D01*
X1478095Y-11521619D01*
X1678095Y-11645428D02*
X1687619Y-11654952D01*
X1678095Y-11664476D01*
X1668571Y-11654952D01*
X1678095Y-11645428D01*
X1678095Y-11664476D01*
X1859048Y-11531143D02*
X1859048Y-11664476D01*
X1811428Y-11454952D02*
X1763809Y-11597809D01*
X1887619Y-11597809D01*
X2001905Y-11464476D02*
X2020952Y-11464476D01*
X2040000Y-11474000D01*
X2049524Y-11483524D01*
X2059048Y-11502571D01*
X2068571Y-11540667D01*
X2068571Y-11588286D01*
X2059048Y-11626381D01*
X2049524Y-11645428D01*
X2040000Y-11654952D01*
X2020952Y-11664476D01*
X2001905Y-11664476D01*
X1982857Y-11654952D01*
X1973333Y-11645428D01*
X1963809Y-11626381D01*
X1954286Y-11588286D01*
X1954286Y-11540667D01*
X1963809Y-11502571D01*
X1973333Y-11483524D01*
X1982857Y-11474000D01*
X2001905Y-11464476D01*
X2192381Y-11464476D02*
X2211429Y-11464476D01*
X2230476Y-11474000D01*
X2240000Y-11483524D01*
X2249524Y-11502571D01*
X2259048Y-11540667D01*
X2259048Y-11588286D01*
X2249524Y-11626381D01*
X2240000Y-11645428D01*
X2230476Y-11654952D01*
X2211429Y-11664476D01*
X2192381Y-11664476D01*
X2173333Y-11654952D01*
X2163810Y-11645428D01*
X2154286Y-11626381D01*
X2144762Y-11588286D01*
X2144762Y-11540667D01*
X2154286Y-11502571D01*
X2163810Y-11483524D01*
X2173333Y-11474000D01*
X2192381Y-11464476D01*
X2344762Y-11664476D02*
X2344762Y-11531143D01*
X2344762Y-11550190D02*
X2354286Y-11540667D01*
X2373333Y-11531143D01*
X2401905Y-11531143D01*
X2420952Y-11540667D01*
X2430476Y-11559714D01*
X2430476Y-11664476D01*
X2430476Y-11559714D02*
X2440000Y-11540667D01*
X2459048Y-11531143D01*
X2487619Y-11531143D01*
X2506667Y-11540667D01*
X2516190Y-11559714D01*
X2516190Y-11664476D01*
X2611429Y-11664476D02*
X2611429Y-11531143D01*
X2611429Y-11550190D02*
X2620952Y-11540667D01*
X2640000Y-11531143D01*
X2668571Y-11531143D01*
X2687619Y-11540667D01*
X2697143Y-11559714D01*
X2697143Y-11664476D01*
X2697143Y-11559714D02*
X2706667Y-11540667D01*
X2725714Y-11531143D01*
X2754286Y-11531143D01*
X2773333Y-11540667D01*
X2782857Y-11559714D01*
X2782857Y-11664476D01*
X3173333Y-11454952D02*
X3001905Y-11712095D01*
X3430476Y-11464476D02*
X3449524Y-11464476D01*
X3468571Y-11474000D01*
X3478095Y-11483524D01*
X3487619Y-11502571D01*
X3497143Y-11540667D01*
X3497143Y-11588286D01*
X3487619Y-11626381D01*
X3478095Y-11645428D01*
X3468571Y-11654952D01*
X3449524Y-11664476D01*
X3430476Y-11664476D01*
X3411428Y-11654952D01*
X3401905Y-11645428D01*
X3392381Y-11626381D01*
X3382857Y-11588286D01*
X3382857Y-11540667D01*
X3392381Y-11502571D01*
X3401905Y-11483524D01*
X3411428Y-11474000D01*
X3430476Y-11464476D01*
X3582857Y-11645428D02*
X3592381Y-11654952D01*
X3582857Y-11664476D01*
X3573333Y-11654952D01*
X3582857Y-11645428D01*
X3582857Y-11664476D01*
X3716190Y-11464476D02*
X3735238Y-11464476D01*
X3754286Y-11474000D01*
X3763809Y-11483524D01*
X3773333Y-11502571D01*
X3782857Y-11540667D01*
X3782857Y-11588286D01*
X3773333Y-11626381D01*
X3763809Y-11645428D01*
X3754286Y-11654952D01*
X3735238Y-11664476D01*
X3716190Y-11664476D01*
X3697143Y-11654952D01*
X3687619Y-11645428D01*
X3678095Y-11626381D01*
X3668571Y-11588286D01*
X3668571Y-11540667D01*
X3678095Y-11502571D01*
X3687619Y-11483524D01*
X3697143Y-11474000D01*
X3716190Y-11464476D01*
X3963809Y-11464476D02*
X3868571Y-11464476D01*
X3859048Y-11559714D01*
X3868571Y-11550190D01*
X3887619Y-11540667D01*
X3935238Y-11540667D01*
X3954286Y-11550190D01*
X3963809Y-11559714D01*
X3973333Y-11578762D01*
X3973333Y-11626381D01*
X3963809Y-11645428D01*
X3954286Y-11654952D01*
X3935238Y-11664476D01*
X3887619Y-11664476D01*
X3868571Y-11654952D01*
X3859048Y-11645428D01*
X4154286Y-11464476D02*
X4059048Y-11464476D01*
X4049524Y-11559714D01*
X4059048Y-11550190D01*
X4078095Y-11540667D01*
X4125714Y-11540667D01*
X4144762Y-11550190D01*
X4154286Y-11559714D01*
X4163809Y-11578762D01*
X4163809Y-11626381D01*
X4154286Y-11645428D01*
X4144762Y-11654952D01*
X4125714Y-11664476D01*
X4078095Y-11664476D01*
X4059048Y-11654952D01*
X4049524Y-11645428D01*
X4354286Y-11664476D02*
X4240000Y-11664476D01*
X4297143Y-11664476D02*
X4297143Y-11464476D01*
X4278095Y-11493048D01*
X4259048Y-11512095D01*
X4240000Y-11521619D01*
X4430476Y-11464476D02*
X4430476Y-11502571D01*
X4506667Y-11464476D02*
X4506667Y-11502571D01*
X4801905Y-11740667D02*
X4792381Y-11731143D01*
X4773333Y-11702571D01*
X4763810Y-11683524D01*
X4754286Y-11654952D01*
X4744762Y-11607333D01*
X4744762Y-11569238D01*
X4754286Y-11521619D01*
X4763810Y-11493048D01*
X4773333Y-11474000D01*
X4792381Y-11445428D01*
X4801905Y-11435905D01*
X4982857Y-11664476D02*
X4868571Y-11664476D01*
X4925714Y-11664476D02*
X4925714Y-11464476D01*
X4906667Y-11493048D01*
X4887619Y-11512095D01*
X4868571Y-11521619D01*
X5059048Y-11483524D02*
X5068571Y-11474000D01*
X5087619Y-11464476D01*
X5135238Y-11464476D01*
X5154286Y-11474000D01*
X5163810Y-11483524D01*
X5173333Y-11502571D01*
X5173333Y-11521619D01*
X5163810Y-11550190D01*
X5049524Y-11664476D01*
X5173333Y-11664476D01*
X5411429Y-11664476D02*
X5411429Y-11464476D01*
X5497143Y-11664476D02*
X5497143Y-11559714D01*
X5487619Y-11540667D01*
X5468571Y-11531143D01*
X5440000Y-11531143D01*
X5420952Y-11540667D01*
X5411429Y-11550190D01*
X5620952Y-11664476D02*
X5601905Y-11654952D01*
X5592381Y-11645428D01*
X5582857Y-11626381D01*
X5582857Y-11569238D01*
X5592381Y-11550190D01*
X5601905Y-11540667D01*
X5620952Y-11531143D01*
X5649524Y-11531143D01*
X5668571Y-11540667D01*
X5678095Y-11550190D01*
X5687619Y-11569238D01*
X5687619Y-11626381D01*
X5678095Y-11645428D01*
X5668571Y-11654952D01*
X5649524Y-11664476D01*
X5620952Y-11664476D01*
X5801905Y-11664476D02*
X5782857Y-11654952D01*
X5773333Y-11635905D01*
X5773333Y-11464476D01*
X5954286Y-11654952D02*
X5935238Y-11664476D01*
X5897143Y-11664476D01*
X5878095Y-11654952D01*
X5868571Y-11635905D01*
X5868571Y-11559714D01*
X5878095Y-11540667D01*
X5897143Y-11531143D01*
X5935238Y-11531143D01*
X5954286Y-11540667D01*
X5963809Y-11559714D01*
X5963809Y-11578762D01*
X5868571Y-11597809D01*
X6040000Y-11654952D02*
X6059048Y-11664476D01*
X6097143Y-11664476D01*
X6116190Y-11654952D01*
X6125714Y-11635905D01*
X6125714Y-11626381D01*
X6116190Y-11607333D01*
X6097143Y-11597809D01*
X6068571Y-11597809D01*
X6049524Y-11588286D01*
X6040000Y-11569238D01*
X6040000Y-11559714D01*
X6049524Y-11540667D01*
X6068571Y-11531143D01*
X6097143Y-11531143D01*
X6116190Y-11540667D01*
X6192381Y-11740667D02*
X6201905Y-11731143D01*
X6220952Y-11702571D01*
X6230476Y-11683524D01*
X6240000Y-11654952D01*
X6249524Y-11607333D01*
X6249524Y-11569238D01*
X6240000Y-11521619D01*
X6230476Y-11493048D01*
X6220952Y-11474000D01*
X6201905Y-11445428D01*
X6192381Y-11435905D01*
D18*
X1070000Y-11758000D02*
X1230000Y-11918000D01*
X1230000Y-11758000D02*
X1070000Y-11918000D01*
X1206569Y-11894569D02*
X1206569Y-11781431D01*
X1093431Y-11781431D01*
X1093431Y-11894569D01*
X1206569Y-11894569D01*
D10*
X1592381Y-11928476D02*
X1478095Y-11928476D01*
X1535238Y-11928476D02*
X1535238Y-11728476D01*
X1516190Y-11757048D01*
X1497143Y-11776095D01*
X1478095Y-11785619D01*
X1678095Y-11909428D02*
X1687619Y-11918952D01*
X1678095Y-11928476D01*
X1668571Y-11918952D01*
X1678095Y-11909428D01*
X1678095Y-11928476D01*
X1859048Y-11728476D02*
X1820952Y-11728476D01*
X1801905Y-11738000D01*
X1792381Y-11747524D01*
X1773333Y-11776095D01*
X1763809Y-11814190D01*
X1763809Y-11890381D01*
X1773333Y-11909428D01*
X1782857Y-11918952D01*
X1801905Y-11928476D01*
X1840000Y-11928476D01*
X1859048Y-11918952D01*
X1868571Y-11909428D01*
X1878095Y-11890381D01*
X1878095Y-11842762D01*
X1868571Y-11823714D01*
X1859048Y-11814190D01*
X1840000Y-11804667D01*
X1801905Y-11804667D01*
X1782857Y-11814190D01*
X1773333Y-11823714D01*
X1763809Y-11842762D01*
X2001905Y-11728476D02*
X2020952Y-11728476D01*
X2040000Y-11738000D01*
X2049524Y-11747524D01*
X2059048Y-11766571D01*
X2068571Y-11804667D01*
X2068571Y-11852286D01*
X2059048Y-11890381D01*
X2049524Y-11909428D01*
X2040000Y-11918952D01*
X2020952Y-11928476D01*
X2001905Y-11928476D01*
X1982857Y-11918952D01*
X1973333Y-11909428D01*
X1963809Y-11890381D01*
X1954286Y-11852286D01*
X1954286Y-11804667D01*
X1963809Y-11766571D01*
X1973333Y-11747524D01*
X1982857Y-11738000D01*
X2001905Y-11728476D01*
X2192381Y-11728476D02*
X2211429Y-11728476D01*
X2230476Y-11738000D01*
X2240000Y-11747524D01*
X2249524Y-11766571D01*
X2259048Y-11804667D01*
X2259048Y-11852286D01*
X2249524Y-11890381D01*
X2240000Y-11909428D01*
X2230476Y-11918952D01*
X2211429Y-11928476D01*
X2192381Y-11928476D01*
X2173333Y-11918952D01*
X2163810Y-11909428D01*
X2154286Y-11890381D01*
X2144762Y-11852286D01*
X2144762Y-11804667D01*
X2154286Y-11766571D01*
X2163810Y-11747524D01*
X2173333Y-11738000D01*
X2192381Y-11728476D01*
X2344762Y-11928476D02*
X2344762Y-11795143D01*
X2344762Y-11814190D02*
X2354286Y-11804667D01*
X2373333Y-11795143D01*
X2401905Y-11795143D01*
X2420952Y-11804667D01*
X2430476Y-11823714D01*
X2430476Y-11928476D01*
X2430476Y-11823714D02*
X2440000Y-11804667D01*
X2459048Y-11795143D01*
X2487619Y-11795143D01*
X2506667Y-11804667D01*
X2516190Y-11823714D01*
X2516190Y-11928476D01*
X2611429Y-11928476D02*
X2611429Y-11795143D01*
X2611429Y-11814190D02*
X2620952Y-11804667D01*
X2640000Y-11795143D01*
X2668571Y-11795143D01*
X2687619Y-11804667D01*
X2697143Y-11823714D01*
X2697143Y-11928476D01*
X2697143Y-11823714D02*
X2706667Y-11804667D01*
X2725714Y-11795143D01*
X2754286Y-11795143D01*
X2773333Y-11804667D01*
X2782857Y-11823714D01*
X2782857Y-11928476D01*
X3173333Y-11718952D02*
X3001905Y-11976095D01*
X3430476Y-11728476D02*
X3449524Y-11728476D01*
X3468571Y-11738000D01*
X3478095Y-11747524D01*
X3487619Y-11766571D01*
X3497143Y-11804667D01*
X3497143Y-11852286D01*
X3487619Y-11890381D01*
X3478095Y-11909428D01*
X3468571Y-11918952D01*
X3449524Y-11928476D01*
X3430476Y-11928476D01*
X3411428Y-11918952D01*
X3401905Y-11909428D01*
X3392381Y-11890381D01*
X3382857Y-11852286D01*
X3382857Y-11804667D01*
X3392381Y-11766571D01*
X3401905Y-11747524D01*
X3411428Y-11738000D01*
X3430476Y-11728476D01*
X3582857Y-11909428D02*
X3592381Y-11918952D01*
X3582857Y-11928476D01*
X3573333Y-11918952D01*
X3582857Y-11909428D01*
X3582857Y-11928476D01*
X3716190Y-11728476D02*
X3735238Y-11728476D01*
X3754286Y-11738000D01*
X3763809Y-11747524D01*
X3773333Y-11766571D01*
X3782857Y-11804667D01*
X3782857Y-11852286D01*
X3773333Y-11890381D01*
X3763809Y-11909428D01*
X3754286Y-11918952D01*
X3735238Y-11928476D01*
X3716190Y-11928476D01*
X3697143Y-11918952D01*
X3687619Y-11909428D01*
X3678095Y-11890381D01*
X3668571Y-11852286D01*
X3668571Y-11804667D01*
X3678095Y-11766571D01*
X3687619Y-11747524D01*
X3697143Y-11738000D01*
X3716190Y-11728476D01*
X3954286Y-11728476D02*
X3916190Y-11728476D01*
X3897143Y-11738000D01*
X3887619Y-11747524D01*
X3868571Y-11776095D01*
X3859048Y-11814190D01*
X3859048Y-11890381D01*
X3868571Y-11909428D01*
X3878095Y-11918952D01*
X3897143Y-11928476D01*
X3935238Y-11928476D01*
X3954286Y-11918952D01*
X3963809Y-11909428D01*
X3973333Y-11890381D01*
X3973333Y-11842762D01*
X3963809Y-11823714D01*
X3954286Y-11814190D01*
X3935238Y-11804667D01*
X3897143Y-11804667D01*
X3878095Y-11814190D01*
X3868571Y-11823714D01*
X3859048Y-11842762D01*
X4040000Y-11728476D02*
X4163809Y-11728476D01*
X4097143Y-11804667D01*
X4125714Y-11804667D01*
X4144762Y-11814190D01*
X4154286Y-11823714D01*
X4163809Y-11842762D01*
X4163809Y-11890381D01*
X4154286Y-11909428D01*
X4144762Y-11918952D01*
X4125714Y-11928476D01*
X4068571Y-11928476D01*
X4049524Y-11918952D01*
X4040000Y-11909428D01*
X4287619Y-11728476D02*
X4306667Y-11728476D01*
X4325714Y-11738000D01*
X4335238Y-11747524D01*
X4344762Y-11766571D01*
X4354286Y-11804667D01*
X4354286Y-11852286D01*
X4344762Y-11890381D01*
X4335238Y-11909428D01*
X4325714Y-11918952D01*
X4306667Y-11928476D01*
X4287619Y-11928476D01*
X4268571Y-11918952D01*
X4259048Y-11909428D01*
X4249524Y-11890381D01*
X4240000Y-11852286D01*
X4240000Y-11804667D01*
X4249524Y-11766571D01*
X4259048Y-11747524D01*
X4268571Y-11738000D01*
X4287619Y-11728476D01*
X4430476Y-11728476D02*
X4430476Y-11766571D01*
X4506667Y-11728476D02*
X4506667Y-11766571D01*
X4801905Y-12004667D02*
X4792381Y-11995143D01*
X4773333Y-11966571D01*
X4763810Y-11947524D01*
X4754286Y-11918952D01*
X4744762Y-11871333D01*
X4744762Y-11833238D01*
X4754286Y-11785619D01*
X4763810Y-11757048D01*
X4773333Y-11738000D01*
X4792381Y-11709428D01*
X4801905Y-11699905D01*
X4868571Y-11747524D02*
X4878095Y-11738000D01*
X4897143Y-11728476D01*
X4944762Y-11728476D01*
X4963810Y-11738000D01*
X4973333Y-11747524D01*
X4982857Y-11766571D01*
X4982857Y-11785619D01*
X4973333Y-11814190D01*
X4859048Y-11928476D01*
X4982857Y-11928476D01*
X5220952Y-11928476D02*
X5220952Y-11728476D01*
X5306667Y-11928476D02*
X5306667Y-11823714D01*
X5297143Y-11804667D01*
X5278095Y-11795143D01*
X5249524Y-11795143D01*
X5230476Y-11804667D01*
X5220952Y-11814190D01*
X5430476Y-11928476D02*
X5411429Y-11918952D01*
X5401905Y-11909428D01*
X5392381Y-11890381D01*
X5392381Y-11833238D01*
X5401905Y-11814190D01*
X5411429Y-11804667D01*
X5430476Y-11795143D01*
X5459048Y-11795143D01*
X5478095Y-11804667D01*
X5487619Y-11814190D01*
X5497143Y-11833238D01*
X5497143Y-11890381D01*
X5487619Y-11909428D01*
X5478095Y-11918952D01*
X5459048Y-11928476D01*
X5430476Y-11928476D01*
X5611428Y-11928476D02*
X5592381Y-11918952D01*
X5582857Y-11899905D01*
X5582857Y-11728476D01*
X5763809Y-11918952D02*
X5744762Y-11928476D01*
X5706667Y-11928476D01*
X5687619Y-11918952D01*
X5678095Y-11899905D01*
X5678095Y-11823714D01*
X5687619Y-11804667D01*
X5706667Y-11795143D01*
X5744762Y-11795143D01*
X5763809Y-11804667D01*
X5773333Y-11823714D01*
X5773333Y-11842762D01*
X5678095Y-11861809D01*
X5849524Y-11918952D02*
X5868571Y-11928476D01*
X5906667Y-11928476D01*
X5925714Y-11918952D01*
X5935238Y-11899905D01*
X5935238Y-11890381D01*
X5925714Y-11871333D01*
X5906667Y-11861809D01*
X5878095Y-11861809D01*
X5859048Y-11852286D01*
X5849524Y-11833238D01*
X5849524Y-11823714D01*
X5859048Y-11804667D01*
X5878095Y-11795143D01*
X5906667Y-11795143D01*
X5925714Y-11804667D01*
X6001905Y-12004667D02*
X6011428Y-11995143D01*
X6030476Y-11966571D01*
X6040000Y-11947524D01*
X6049524Y-11918952D01*
X6059048Y-11871333D01*
X6059048Y-11833238D01*
X6049524Y-11785619D01*
X6040000Y-11757048D01*
X6030476Y-11738000D01*
X6011428Y-11709428D01*
X6001905Y-11699905D01*
M02*
