M48
; DRILL file {KiCad 6.0.5-a6ca702e91~116~ubuntu20.04.1} date lun 12 sep 2022 10:32:02
; FORMAT={-:-/ absolute / metric / decimal}
; #@! TF.CreationDate,2022-09-12T10:32:02-03:00
; #@! TF.GenerationSoftware,Kicad,Pcbnew,6.0.5-a6ca702e91~116~ubuntu20.04.1
; #@! TF.FileFunction,Plated,1,2,PTH
FMAT,2
METRIC
; #@! TA.AperFunction,Plated,PTH,ComponentDrill
T1C0.750
; #@! TA.AperFunction,Plated,PTH,ComponentDrill
T2C0.800
; #@! TA.AperFunction,Plated,PTH,ComponentDrill
T3C1.000
; #@! TA.AperFunction,Plated,PTH,ComponentDrill
T4C1.100
; #@! TA.AperFunction,Plated,PTH,ComponentDrill
T5C1.200
; #@! TA.AperFunction,Plated,PTH,ComponentDrill
T6C1.300
; #@! TA.AperFunction,Plated,PTH,ComponentDrill
T7C1.400
; #@! TA.AperFunction,Plated,PTH,ComponentDrill
T8C1.600
%
G90
G05
T1
X28.64Y-31.73
X28.64Y-34.63
X28.64Y-37.5
X28.64Y-48.84
X28.64Y-54.4
X28.64Y-57.4
X28.64Y-63.36
X28.64Y-66.33
X28.74Y-40.3
X28.74Y-43.17
X28.74Y-45.97
X28.74Y-51.74
X28.74Y-60.56
X28.74Y-69.03
X28.74Y-71.83
X28.74Y-74.63
X28.74Y-77.43
X28.74Y-80.23
X29.52Y-85.45
X29.52Y-88.25
X31.24Y-33.13
X31.24Y-38.9
X31.24Y-44.47
X31.24Y-73.2
X31.34Y-50.24
X31.34Y-55.9
X31.34Y-61.86
X31.34Y-67.53
X31.34Y-78.8
X32.12Y-86.85
T2
X28.64Y-28.6
X34.32Y-35.8
X34.32Y-41.304
X34.32Y-46.807
X34.32Y-52.311
X34.32Y-57.815
X34.32Y-63.319
X34.32Y-68.822
X34.32Y-74.326
X34.32Y-79.83
X34.84Y-87.13
X38.8Y-28.6
X44.48Y-35.8
X44.48Y-41.304
X44.48Y-46.807
X44.48Y-52.311
X44.48Y-57.815
X44.48Y-63.319
X44.48Y-68.822
X44.48Y-74.326
X44.48Y-79.83
X45.0Y-87.13
X79.34Y-57.4
X84.34Y-57.4
X84.6Y-33.09
X84.6Y-36.59
T3
X49.055Y-34.4
X51.595Y-34.4
X54.135Y-34.4
X55.795Y-42.2
X55.795Y-44.74
X55.795Y-47.28
X56.675Y-34.4
X59.475Y-42.2
X59.475Y-44.74
X59.475Y-47.28
X65.0Y-33.075
X65.0Y-35.615
X65.0Y-38.155
X65.0Y-40.695
X65.0Y-43.235
X65.0Y-45.775
X65.0Y-48.315
X65.0Y-50.855
X65.0Y-53.395
X65.0Y-55.935
X65.0Y-58.475
X65.0Y-61.015
X65.0Y-63.555
X65.0Y-66.095
X65.0Y-68.635
X65.0Y-71.175
X65.0Y-73.715
X65.0Y-76.255
X65.0Y-78.795
X65.0Y-81.335
X67.54Y-33.075
X67.54Y-35.615
X67.54Y-38.155
X67.54Y-40.695
X67.54Y-43.235
X67.54Y-45.775
X67.54Y-48.315
X67.54Y-50.855
X67.54Y-53.395
X67.54Y-55.935
X67.54Y-58.475
X67.54Y-61.015
X67.54Y-63.555
X67.54Y-66.095
X67.54Y-68.635
X67.54Y-71.175
X67.54Y-73.715
X67.54Y-76.255
X67.54Y-78.795
X67.54Y-81.335
T4
X42.055Y-25.46
X42.055Y-28.0
X42.055Y-30.54
X77.88Y-49.7
X79.405Y-45.575
X81.28Y-49.7
X83.03Y-45.575
X84.63Y-49.7
T5
X76.07Y-32.71
X76.17Y-37.21
T6
X79.34Y-69.03
X84.34Y-69.03
T7
X23.777Y-29.9
X23.777Y-34.98
X23.777Y-40.06
X23.777Y-45.14
X23.777Y-50.22
X23.777Y-55.3
X23.777Y-63.5
X23.777Y-68.58
X23.777Y-73.66
X23.777Y-78.74
X23.777Y-83.82
X23.777Y-88.9
T8
X71.04Y-27.27
X86.28Y-27.27
T0
M30
