%TF.GenerationSoftware,KiCad,Pcbnew,6.0.5-a6ca702e91~116~ubuntu20.04.1*%
%TF.CreationDate,2022-09-12T10:32:14-03:00*%
%TF.ProjectId,PEF,5045462e-6b69-4636-9164-5f7063625858,rev?*%
%TF.SameCoordinates,Original*%
%TF.FileFunction,Copper,L2,Bot*%
%TF.FilePolarity,Positive*%
%FSLAX46Y46*%
G04 Gerber Fmt 4.6, Leading zero omitted, Abs format (unit mm)*
G04 Created by KiCad (PCBNEW 6.0.5-a6ca702e91~116~ubuntu20.04.1) date 2022-09-12 10:32:14*
%MOMM*%
%LPD*%
G01*
G04 APERTURE LIST*
G04 Aperture macros list*
%AMRoundRect*
0 Rectangle with rounded corners*
0 $1 Rounding radius*
0 $2 $3 $4 $5 $6 $7 $8 $9 X,Y pos of 4 corners*
0 Add a 4 corners polygon primitive as box body*
4,1,4,$2,$3,$4,$5,$6,$7,$8,$9,$2,$3,0*
0 Add four circle primitives for the rounded corners*
1,1,$1+$1,$2,$3*
1,1,$1+$1,$4,$5*
1,1,$1+$1,$6,$7*
1,1,$1+$1,$8,$9*
0 Add four rect primitives between the rounded corners*
20,1,$1+$1,$2,$3,$4,$5,0*
20,1,$1+$1,$4,$5,$6,$7,0*
20,1,$1+$1,$6,$7,$8,$9,0*
20,1,$1+$1,$8,$9,$2,$3,0*%
G04 Aperture macros list end*
%ADD10C,1.000000*%
%TA.AperFunction,NonConductor*%
%ADD11C,1.000000*%
%TD*%
%TA.AperFunction,ComponentPad*%
%ADD12R,1.800000X1.800000*%
%TD*%
%TA.AperFunction,ComponentPad*%
%ADD13R,2.500000X1.800000*%
%TD*%
%TA.AperFunction,ComponentPad*%
%ADD14C,1.600000*%
%TD*%
%TA.AperFunction,ComponentPad*%
%ADD15C,1.500000*%
%TD*%
%TA.AperFunction,ComponentPad*%
%ADD16O,1.500000X1.500000*%
%TD*%
%TA.AperFunction,ComponentPad*%
%ADD17R,1.700000X1.700000*%
%TD*%
%TA.AperFunction,ComponentPad*%
%ADD18O,1.700000X1.700000*%
%TD*%
%TA.AperFunction,ComponentPad*%
%ADD19O,1.600000X1.600000*%
%TD*%
%TA.AperFunction,ComponentPad*%
%ADD20R,3.200000X3.200000*%
%TD*%
%TA.AperFunction,ComponentPad*%
%ADD21O,3.200000X3.200000*%
%TD*%
%TA.AperFunction,ComponentPad*%
%ADD22RoundRect,0.336538X-1.463462X1.063462X-1.463462X-1.063462X1.463462X-1.063462X1.463462X1.063462X0*%
%TD*%
%TA.AperFunction,ComponentPad*%
%ADD23O,3.600000X2.800000*%
%TD*%
%TA.AperFunction,ComponentPad*%
%ADD24C,2.400000*%
%TD*%
%TA.AperFunction,ComponentPad*%
%ADD25C,2.000000*%
%TD*%
%TA.AperFunction,ComponentPad*%
%ADD26R,2.600000X2.600000*%
%TD*%
%TA.AperFunction,ComponentPad*%
%ADD27C,2.600000*%
%TD*%
%TA.AperFunction,ComponentPad*%
%ADD28R,2.000000X1.905000*%
%TD*%
%TA.AperFunction,ComponentPad*%
%ADD29O,2.000000X1.905000*%
%TD*%
%TA.AperFunction,Conductor*%
%ADD30C,1.000000*%
%TD*%
G04 APERTURE END LIST*
D10*
D11*
X54127619Y-19361904D02*
X54127619Y-14361904D01*
X52222857Y-14361904D01*
X51746666Y-14600000D01*
X51508571Y-14838095D01*
X51270476Y-15314285D01*
X51270476Y-16028571D01*
X51508571Y-16504761D01*
X51746666Y-16742857D01*
X52222857Y-16980952D01*
X54127619Y-16980952D01*
X50318095Y-19838095D02*
X46508571Y-19838095D01*
X45318095Y-16742857D02*
X43651428Y-16742857D01*
X42937142Y-19361904D02*
X45318095Y-19361904D01*
X45318095Y-14361904D01*
X42937142Y-14361904D01*
X39127619Y-16742857D02*
X40794285Y-16742857D01*
X40794285Y-19361904D02*
X40794285Y-14361904D01*
X38413333Y-14361904D01*
X33413333Y-14361904D02*
X31746666Y-19361904D01*
X30080000Y-14361904D01*
X25794285Y-19361904D02*
X28651428Y-19361904D01*
X27222857Y-19361904D02*
X27222857Y-14361904D01*
X27699047Y-15076190D01*
X28175238Y-15552380D01*
X28651428Y-15790476D01*
D12*
%TO.P,U2,1,VIN*%
%TO.N,12V*%
X77880000Y-49700000D03*
D13*
%TO.P,U2,2,OUT*%
%TO.N,Net-(D1-Pad1)*%
X79405000Y-45575000D03*
%TO.P,U2,3,GND*%
%TO.N,GND*%
X81280000Y-49700000D03*
%TO.P,U2,4,FB*%
%TO.N,5 V*%
X83030000Y-45575000D03*
%TO.P,U2,5,~{ON}/OFF*%
%TO.N,GND*%
X84630000Y-49700000D03*
%TD*%
D14*
%TO.P,C2,1*%
%TO.N,5 V*%
X84600000Y-36590000D03*
%TO.P,C2,2*%
%TO.N,GND*%
X84600000Y-33090000D03*
%TD*%
D15*
%TO.P,Q3,1,E*%
%TO.N,GND*%
X28640000Y-48840000D03*
D16*
%TO.P,Q3,2,B*%
%TO.N,Net-(Q3-Pad2)*%
X31340000Y-50240000D03*
D15*
%TO.P,Q3,3,C*%
%TO.N,530*%
X28740000Y-51740000D03*
%TD*%
D17*
%TO.P,J3,1,Pin_1*%
%TO.N,3.3 V*%
X55795000Y-42200000D03*
D18*
%TO.P,J3,2,Pin_2*%
X55795000Y-44740000D03*
%TO.P,J3,3,Pin_3*%
X55795000Y-47280000D03*
%TD*%
D14*
%TO.P,R5,1*%
%TO.N,Net-(Q4-Pad2)*%
X34320000Y-74326250D03*
D19*
%TO.P,R5,2*%
%TO.N,37*%
X44480000Y-74326250D03*
%TD*%
D20*
%TO.P,D1,1,K*%
%TO.N,Net-(D1-Pad1)*%
X71040000Y-27270000D03*
D21*
%TO.P,D1,2,A*%
%TO.N,GND*%
X86280000Y-27270000D03*
%TD*%
D14*
%TO.P,R10,1*%
%TO.N,Net-(Q9-Pad2)*%
X34320000Y-63318750D03*
D19*
%TO.P,R10,2*%
%TO.N,33*%
X44480000Y-63318750D03*
%TD*%
D22*
%TO.P,J2,1,Pin_1*%
%TO.N,660*%
X23777500Y-63500000D03*
D23*
%TO.P,J2,2,Pin_2*%
%TO.N,280*%
X23777500Y-68580000D03*
%TO.P,J2,3,Pin_3*%
%TO.N,WA*%
X23777500Y-73660000D03*
%TO.P,J2,4,Pin_4*%
%TO.N,365*%
X23777500Y-78740000D03*
%TO.P,J2,5,Pin_5*%
%TO.N,12V*%
X23777500Y-83820000D03*
%TO.P,J2,6,Pin_6*%
%TO.N,PUMP*%
X23777500Y-88900000D03*
%TD*%
D14*
%TO.P,R2,1*%
%TO.N,Net-(Q1-Pad2)*%
X34320000Y-68822500D03*
D19*
%TO.P,R2,2*%
%TO.N,35*%
X44480000Y-68822500D03*
%TD*%
D24*
%TO.P,L1,1,1*%
%TO.N,Net-(D1-Pad1)*%
X76170000Y-37210000D03*
%TO.P,L1,2,2*%
%TO.N,5 V*%
X76070000Y-32710000D03*
%TD*%
D14*
%TO.P,R3,1*%
%TO.N,Net-(Q2-Pad2)*%
X34320000Y-79830000D03*
D19*
%TO.P,R3,2*%
%TO.N,40*%
X44480000Y-79830000D03*
%TD*%
D15*
%TO.P,Q5,1,E*%
%TO.N,GND*%
X29520000Y-85450000D03*
%TO.P,Q5,2,B*%
%TO.N,Net-(Q5-Pad2)*%
X32120000Y-86850000D03*
%TO.P,Q5,3,C*%
%TO.N,PUMP*%
X29520000Y-88250000D03*
%TD*%
D25*
%TO.P,J7,1,Pin_1*%
%TO.N,3.3 V*%
X65000000Y-33075000D03*
%TO.P,J7,2,Pin_2*%
%TO.N,5 V*%
X67540000Y-33075000D03*
%TO.P,J7,3,Pin_3*%
%TO.N,SDA*%
X65000000Y-35615000D03*
%TO.P,J7,4,Pin_4*%
%TO.N,5 V*%
X67540000Y-35615000D03*
%TO.P,J7,5,Pin_5*%
%TO.N,SCL*%
X65000000Y-38155000D03*
%TO.P,J7,6,Pin_6*%
%TO.N,GND*%
X67540000Y-38155000D03*
%TO.P,J7,7,Pin_7*%
%TO.N,Accept B*%
X65000000Y-40695000D03*
%TO.P,J7,8,Pin_8*%
%TO.N,unconnected-(J7-Pad8)*%
X67540000Y-40695000D03*
%TO.P,J7,9,Pin_9*%
%TO.N,GND*%
X65000000Y-43235000D03*
%TO.P,J7,10,Pin_10*%
%TO.N,unconnected-(J7-Pad10)*%
X67540000Y-43235000D03*
%TO.P,J7,11,Pin_11*%
%TO.N,Change B*%
X65000000Y-45775000D03*
%TO.P,J7,12,Pin_12*%
%TO.N,unconnected-(J7-Pad12)*%
X67540000Y-45775000D03*
%TO.P,J7,13,Pin_13*%
%TO.N,Cancel B*%
X65000000Y-48315000D03*
%TO.P,J7,14,Pin_14*%
%TO.N,GND*%
X67540000Y-48315000D03*
%TO.P,J7,15,Pin_15*%
%TO.N,unconnected-(J7-Pad15)*%
X65000000Y-50855000D03*
%TO.P,J7,16,Pin_16*%
%TO.N,unconnected-(J7-Pad16)*%
X67540000Y-50855000D03*
%TO.P,J7,17,Pin_17*%
%TO.N,3.3 V*%
X65000000Y-53395000D03*
%TO.P,J7,18,Pin_18*%
%TO.N,unconnected-(J7-Pad18)*%
X67540000Y-53395000D03*
%TO.P,J7,19,Pin_19*%
%TO.N,19*%
X65000000Y-55935000D03*
%TO.P,J7,20,Pin_20*%
%TO.N,unconnected-(J7-Pad20)*%
X67540000Y-55935000D03*
%TO.P,J7,21,Pin_21*%
%TO.N,21*%
X65000000Y-58475000D03*
%TO.P,J7,22,Pin_22*%
%TO.N,unconnected-(J7-Pad22)*%
X67540000Y-58475000D03*
%TO.P,J7,23,Pin_23*%
%TO.N,23*%
X65000000Y-61015000D03*
%TO.P,J7,24,Pin_24*%
%TO.N,unconnected-(J7-Pad24)*%
X67540000Y-61015000D03*
%TO.P,J7,25,Pin_25*%
%TO.N,GND*%
X65000000Y-63555000D03*
%TO.P,J7,26,Pin_26*%
%TO.N,unconnected-(J7-Pad26)*%
X67540000Y-63555000D03*
%TO.P,J7,27,Pin_27*%
%TO.N,unconnected-(J7-Pad27)*%
X65000000Y-66095000D03*
%TO.P,J7,28,Pin_28*%
%TO.N,unconnected-(J7-Pad28)*%
X67540000Y-66095000D03*
%TO.P,J7,29,Pin_29*%
%TO.N,29*%
X65000000Y-68635000D03*
%TO.P,J7,30,Pin_30*%
%TO.N,GND*%
X67540000Y-68635000D03*
%TO.P,J7,31,Pin_31*%
%TO.N,31*%
X65000000Y-71175000D03*
%TO.P,J7,32,Pin_32*%
%TO.N,unconnected-(J7-Pad32)*%
X67540000Y-71175000D03*
%TO.P,J7,33,Pin_33*%
%TO.N,33*%
X65000000Y-73715000D03*
%TO.P,J7,34,Pin_34*%
%TO.N,GND*%
X67540000Y-73715000D03*
%TO.P,J7,35,Pin_35*%
%TO.N,35*%
X65000000Y-76255000D03*
%TO.P,J7,36,Pin_36*%
%TO.N,unconnected-(J7-Pad36)*%
X67540000Y-76255000D03*
%TO.P,J7,37,Pin_37*%
%TO.N,37*%
X65000000Y-78795000D03*
%TO.P,J7,38,Pin_38*%
%TO.N,38*%
X67540000Y-78795000D03*
%TO.P,J7,39,Pin_39*%
%TO.N,GND*%
X65000000Y-81335000D03*
%TO.P,J7,40,Pin_40*%
%TO.N,40*%
X67540000Y-81335000D03*
%TD*%
D14*
%TO.P,R9,1*%
%TO.N,Net-(Q8-Pad2)*%
X34320000Y-41303750D03*
D19*
%TO.P,R9,2*%
%TO.N,21*%
X44480000Y-41303750D03*
%TD*%
D14*
%TO.P,R7,1*%
%TO.N,Net-(Q6-Pad2)*%
X34320000Y-35800000D03*
D19*
%TO.P,R7,2*%
%TO.N,19*%
X44480000Y-35800000D03*
%TD*%
D26*
%TO.P,J6,1,Pin_1*%
%TO.N,12V*%
X79340000Y-69030000D03*
D27*
%TO.P,J6,2,Pin_2*%
%TO.N,GND*%
X84340000Y-69030000D03*
%TD*%
D15*
%TO.P,Q4,1,E*%
%TO.N,GND*%
X28740000Y-71830000D03*
%TO.P,Q4,2,B*%
%TO.N,Net-(Q4-Pad2)*%
X31240000Y-73200000D03*
%TO.P,Q4,3,C*%
%TO.N,WA*%
X28740000Y-74630000D03*
%TD*%
%TO.P,Q2,1,E*%
%TO.N,GND*%
X28740000Y-77430000D03*
%TO.P,Q2,2,B*%
%TO.N,Net-(Q2-Pad2)*%
X31340000Y-78800000D03*
%TO.P,Q2,3,C*%
%TO.N,365*%
X28740000Y-80230000D03*
%TD*%
D22*
%TO.P,J1,1,Pin_1*%
%TO.N,ADJ C*%
X23777500Y-29900000D03*
D23*
%TO.P,J1,2,Pin_2*%
%TO.N,395*%
X23777500Y-34980000D03*
%TO.P,J1,3,Pin_3*%
%TO.N,440*%
X23777500Y-40060000D03*
%TO.P,J1,4,Pin_4*%
%TO.N,470*%
X23777500Y-45140000D03*
%TO.P,J1,5,Pin_5*%
%TO.N,530*%
X23777500Y-50220000D03*
%TO.P,J1,6,Pin_6*%
%TO.N,600*%
X23777500Y-55300000D03*
%TD*%
D15*
%TO.P,Q6,1,E*%
%TO.N,GND*%
X28640000Y-31730000D03*
D16*
%TO.P,Q6,2,B*%
%TO.N,Net-(Q6-Pad2)*%
X31240000Y-33130000D03*
D15*
%TO.P,Q6,3,C*%
%TO.N,395*%
X28640000Y-34630000D03*
%TD*%
%TO.P,Q7,1,E*%
%TO.N,GND*%
X28640000Y-54400000D03*
D16*
%TO.P,Q7,2,B*%
%TO.N,Net-(Q7-Pad2)*%
X31340000Y-55900000D03*
%TO.P,Q7,3,C*%
%TO.N,600*%
X28640000Y-57400000D03*
%TD*%
D14*
%TO.P,R1,1*%
%TO.N,Net-(R1-Pad1)*%
X38800000Y-28600000D03*
D19*
%TO.P,R1,2*%
%TO.N,ADJ C*%
X28640000Y-28600000D03*
%TD*%
D17*
%TO.P,J4,1,Pin_1*%
%TO.N,Accept B*%
X59475000Y-42200000D03*
D18*
%TO.P,J4,2,Pin_2*%
%TO.N,Change B*%
X59475000Y-44740000D03*
%TO.P,J4,3,Pin_3*%
%TO.N,Cancel B*%
X59475000Y-47280000D03*
%TD*%
D15*
%TO.P,Q1,1,E*%
%TO.N,GND*%
X28640000Y-66330000D03*
D16*
%TO.P,Q1,2,B*%
%TO.N,Net-(Q1-Pad2)*%
X31340000Y-67530000D03*
%TO.P,Q1,3,C*%
%TO.N,280*%
X28740000Y-69030000D03*
%TD*%
D15*
%TO.P,Q8,1,E*%
%TO.N,GND*%
X28640000Y-37500000D03*
D16*
%TO.P,Q8,2,B*%
%TO.N,Net-(Q8-Pad2)*%
X31240000Y-38900000D03*
%TO.P,Q8,3,C*%
%TO.N,440*%
X28740000Y-40300000D03*
%TD*%
D14*
%TO.P,R6,1*%
%TO.N,Net-(Q5-Pad2)*%
X34840000Y-87130000D03*
D19*
%TO.P,R6,2*%
%TO.N,38*%
X45000000Y-87130000D03*
%TD*%
D14*
%TO.P,R8,1*%
%TO.N,Net-(Q7-Pad2)*%
X34320000Y-57815000D03*
D19*
%TO.P,R8,2*%
%TO.N,31*%
X44480000Y-57815000D03*
%TD*%
D14*
%TO.P,R4,1*%
%TO.N,Net-(Q3-Pad2)*%
X34320000Y-52311250D03*
D19*
%TO.P,R4,2*%
%TO.N,29*%
X44480000Y-52311250D03*
%TD*%
D14*
%TO.P,C1,1*%
%TO.N,12V*%
X79340000Y-57400000D03*
%TO.P,C1,2*%
%TO.N,GND*%
X84340000Y-57400000D03*
%TD*%
D15*
%TO.P,Q9,1,E*%
%TO.N,GND*%
X28740000Y-60560000D03*
D16*
%TO.P,Q9,2,B*%
%TO.N,Net-(Q9-Pad2)*%
X31340000Y-61860000D03*
D15*
%TO.P,Q9,3,C*%
%TO.N,660*%
X28640000Y-63360000D03*
%TD*%
D17*
%TO.P,J5,1,Pin_1*%
%TO.N,5 V*%
X56675000Y-34400000D03*
D18*
%TO.P,J5,2,Pin_2*%
%TO.N,GND*%
X54135000Y-34400000D03*
%TO.P,J5,3,Pin_3*%
%TO.N,SDA*%
X51595000Y-34400000D03*
%TO.P,J5,4,Pin_4*%
%TO.N,SCL*%
X49055000Y-34400000D03*
%TD*%
D14*
%TO.P,R11,1*%
%TO.N,Net-(Q10-Pad2)*%
X34320000Y-46807500D03*
D19*
%TO.P,R11,2*%
%TO.N,23*%
X44480000Y-46807500D03*
%TD*%
D15*
%TO.P,Q10,1,E*%
%TO.N,GND*%
X28740000Y-43170000D03*
D16*
%TO.P,Q10,2,B*%
%TO.N,Net-(Q10-Pad2)*%
X31240000Y-44470000D03*
%TO.P,Q10,3,C*%
%TO.N,470*%
X28740000Y-45970000D03*
%TD*%
D28*
%TO.P,U1,1,ADJ*%
%TO.N,ADJ C*%
X42055000Y-25460000D03*
D29*
%TO.P,U1,2,VO*%
%TO.N,Net-(R1-Pad1)*%
X42055000Y-28000000D03*
%TO.P,U1,3,VI*%
%TO.N,12V*%
X42055000Y-30540000D03*
%TD*%
D30*
%TO.N,12V*%
X19800000Y-83800000D02*
X19800000Y-27200000D01*
X19800000Y-27200000D02*
X25000000Y-22000000D01*
X25000000Y-22000000D02*
X45600000Y-22000000D01*
X45600000Y-22000000D02*
X46800000Y-23200000D01*
X46800000Y-23200000D02*
X46800000Y-29250000D01*
X46800000Y-29250000D02*
X46060000Y-29990000D01*
X46060000Y-29990000D02*
X46060000Y-30540000D01*
X46060000Y-30540000D02*
X42055000Y-30540000D01*
X79340000Y-69030000D02*
X79340000Y-82670000D01*
X70530000Y-91480000D02*
X26080000Y-91480000D01*
X79340000Y-82670000D02*
X70530000Y-91480000D01*
X26080000Y-91480000D02*
X25710000Y-91850000D01*
X25710000Y-91850000D02*
X20770000Y-91850000D01*
X20770000Y-91850000D02*
X19800000Y-90880000D01*
X19800000Y-90880000D02*
X19800000Y-83800000D01*
%TO.N,38*%
X70275000Y-86225000D02*
X70275000Y-79200000D01*
X45000000Y-87130000D02*
X69370000Y-87130000D01*
X69370000Y-87130000D02*
X70275000Y-86225000D01*
%TO.N,GND*%
X39000000Y-83400000D02*
X31570000Y-83400000D01*
X31570000Y-83400000D02*
X29520000Y-85450000D01*
%TO.N,PUMP*%
X29520000Y-88250000D02*
X28020000Y-88250000D01*
X28020000Y-88250000D02*
X27370000Y-88900000D01*
%TO.N,12V*%
X77880000Y-54230000D02*
X78225000Y-54575000D01*
X78225000Y-54575000D02*
X79340000Y-55690000D01*
%TO.N,5 V*%
X84600000Y-36590000D02*
X84600000Y-41960000D01*
X84600000Y-41960000D02*
X83030000Y-43530000D01*
X83030000Y-43530000D02*
X83030000Y-45575000D01*
%TO.N,Net-(D1-Pad1)*%
X79405000Y-45575000D02*
X79405000Y-40445000D01*
X79405000Y-40445000D02*
X76170000Y-37210000D01*
%TO.N,GND*%
X81280000Y-49700000D02*
X81280000Y-49040000D01*
X81280000Y-49040000D02*
X79970000Y-47730000D01*
X79970000Y-47730000D02*
X70340000Y-47730000D01*
X70340000Y-47730000D02*
X69755000Y-48315000D01*
X69755000Y-48315000D02*
X67540000Y-48315000D01*
X54135000Y-31940000D02*
X56375000Y-29700000D01*
X56375000Y-29700000D02*
X57040000Y-29700000D01*
X57040000Y-29700000D02*
X65450000Y-21290000D01*
X65450000Y-21290000D02*
X78770000Y-21290000D01*
X78770000Y-21290000D02*
X82410000Y-24930000D01*
X82410000Y-24930000D02*
X82410000Y-27270000D01*
X82410000Y-27270000D02*
X86280000Y-27270000D01*
%TO.N,5 V*%
X66600000Y-31000000D02*
X65700000Y-31000000D01*
X65700000Y-31000000D02*
X58675000Y-31000000D01*
X76070000Y-32710000D02*
X76070000Y-24480000D01*
X76070000Y-24480000D02*
X74720000Y-23130000D01*
X74720000Y-23130000D02*
X67100000Y-23130000D01*
X67100000Y-23130000D02*
X65700000Y-24530000D01*
X65700000Y-24530000D02*
X65700000Y-31000000D01*
%TO.N,GND*%
X84340000Y-56100000D02*
X84680000Y-55760000D01*
X84680000Y-55760000D02*
X84680000Y-49600000D01*
%TO.N,12V*%
X77880000Y-49600000D02*
X77880000Y-54230000D01*
%TO.N,GND*%
X84340000Y-57400000D02*
X84340000Y-56100000D01*
%TO.N,12V*%
X79340000Y-69030000D02*
X79340000Y-57400000D01*
X79340000Y-55690000D02*
X79340000Y-57400000D01*
%TO.N,GND*%
X81280000Y-49600000D02*
X84680000Y-49600000D01*
X84340000Y-69030000D02*
X84340000Y-57400000D01*
%TO.N,Net-(D1-Pad1)*%
X76170000Y-37210000D02*
X71040000Y-32080000D01*
X71040000Y-32080000D02*
X71040000Y-27270000D01*
%TO.N,5 V*%
X84600000Y-36590000D02*
X82540000Y-36590000D01*
X82540000Y-36590000D02*
X78660000Y-32710000D01*
X78660000Y-32710000D02*
X76070000Y-32710000D01*
%TO.N,GND*%
X86280000Y-31610000D02*
X86080000Y-31610000D01*
X86080000Y-31610000D02*
X84600000Y-33090000D01*
X86280000Y-27270000D02*
X86280000Y-31610000D01*
X86280000Y-31610000D02*
X87880000Y-33210000D01*
X87880000Y-33210000D02*
X88010000Y-33080000D01*
X87880000Y-46400000D02*
X87880000Y-33210000D01*
X84680000Y-49600000D02*
X87880000Y-46400000D01*
%TO.N,5 V*%
X76620000Y-33260000D02*
X76070000Y-32710000D01*
%TO.N,12V*%
X19800000Y-83800000D02*
X19820000Y-83820000D01*
X19820000Y-83820000D02*
X23777500Y-83820000D01*
%TO.N,GND*%
X39000000Y-36000000D02*
X39000000Y-32800000D01*
X29490000Y-59810000D02*
X38990000Y-59810000D01*
X33180000Y-30980000D02*
X29390000Y-30980000D01*
X34149972Y-44000000D02*
X39000000Y-44000000D01*
X28640000Y-37500000D02*
X29390000Y-36750000D01*
X28640000Y-66330000D02*
X29570000Y-65400000D01*
X46660000Y-31940000D02*
X54135000Y-31940000D01*
X39000000Y-76800000D02*
X39000000Y-83400000D01*
X39000000Y-32800000D02*
X35000000Y-32800000D01*
X39000000Y-59800000D02*
X39000000Y-65400000D01*
X54135000Y-31940000D02*
X54135000Y-34400000D01*
X39000000Y-36000000D02*
X39000000Y-50000000D01*
X32469972Y-42320000D02*
X34149972Y-44000000D01*
X38880000Y-76680000D02*
X39000000Y-76800000D01*
X28740000Y-60560000D02*
X29490000Y-59810000D01*
X29570000Y-65400000D02*
X39000000Y-65400000D01*
X31950000Y-36750000D02*
X33400000Y-38200000D01*
X29390000Y-42320000D02*
X32469972Y-42320000D01*
X28640000Y-54400000D02*
X29390000Y-53650000D01*
X38990000Y-59810000D02*
X39000000Y-59800000D01*
X46660000Y-31940000D02*
X45800000Y-32800000D01*
X32290000Y-48090000D02*
X34200000Y-50000000D01*
X45800000Y-32800000D02*
X39000000Y-32800000D01*
X37800000Y-38200000D02*
X39000000Y-37000000D01*
X28740000Y-71830000D02*
X29570000Y-71000000D01*
X29570000Y-71000000D02*
X39000000Y-71000000D01*
X39000000Y-71000000D02*
X39000000Y-76800000D01*
X29390000Y-36750000D02*
X31950000Y-36750000D01*
X33600000Y-54800000D02*
X39000000Y-54800000D01*
X28640000Y-48840000D02*
X29390000Y-48090000D01*
X39000000Y-50000000D02*
X39000000Y-54800000D01*
X39000000Y-65400000D02*
X39000000Y-71000000D01*
X39000000Y-37000000D02*
X39000000Y-36000000D01*
X29390000Y-53650000D02*
X32450000Y-53650000D01*
X29000000Y-85000000D02*
X28900000Y-85100000D01*
X33400000Y-38200000D02*
X37800000Y-38200000D01*
X34200000Y-50000000D02*
X39000000Y-50000000D01*
X28740000Y-77430000D02*
X29490000Y-76680000D01*
X29390000Y-48090000D02*
X32290000Y-48090000D01*
X32450000Y-53650000D02*
X33600000Y-54800000D01*
X39000000Y-54800000D02*
X39000000Y-59800000D01*
X29490000Y-76680000D02*
X38880000Y-76680000D01*
X29390000Y-30980000D02*
X28640000Y-31730000D01*
X35000000Y-32800000D02*
X33180000Y-30980000D01*
X28640000Y-43070000D02*
X29390000Y-42320000D01*
%TO.N,ADJ C*%
X31860000Y-25460000D02*
X42055000Y-25460000D01*
X23777500Y-29900000D02*
X27340000Y-29900000D01*
X28640000Y-28600000D02*
X31780000Y-25460000D01*
X27340000Y-29900000D02*
X28640000Y-28600000D01*
X31780000Y-25460000D02*
X31860000Y-25460000D01*
%TO.N,365*%
X23777500Y-78740000D02*
X27250000Y-78740000D01*
X27250000Y-78740000D02*
X28740000Y-80230000D01*
%TO.N,395*%
X23777500Y-34980000D02*
X28290000Y-34980000D01*
X28290000Y-34980000D02*
X28640000Y-34630000D01*
%TO.N,440*%
X23777500Y-40060000D02*
X28500000Y-40060000D01*
X28500000Y-40060000D02*
X28740000Y-40300000D01*
%TO.N,470*%
X27710000Y-45140000D02*
X28540000Y-45970000D01*
X23777500Y-45140000D02*
X27710000Y-45140000D01*
%TO.N,530*%
X23777500Y-50220000D02*
X27220000Y-50220000D01*
X28740000Y-51740000D02*
X27220000Y-50220000D01*
%TO.N,PUMP*%
X23777500Y-88900000D02*
X27370000Y-88900000D01*
%TO.N,WA*%
X23777500Y-73660000D02*
X27770000Y-73660000D01*
X27770000Y-73660000D02*
X28740000Y-74630000D01*
%TO.N,280*%
X23777500Y-68580000D02*
X28290000Y-68580000D01*
X28290000Y-68580000D02*
X28740000Y-69030000D01*
%TO.N,660*%
X23777500Y-63500000D02*
X28500000Y-63500000D01*
X28500000Y-63500000D02*
X28640000Y-63360000D01*
%TO.N,600*%
X26540000Y-55300000D02*
X28640000Y-57400000D01*
X23777500Y-55300000D02*
X26540000Y-55300000D01*
%TO.N,3.3 V*%
X55795000Y-44740000D02*
X55795000Y-47280000D01*
X55795000Y-42200000D02*
X55795000Y-44740000D01*
X62070000Y-53395000D02*
X58075000Y-49400000D01*
X65000000Y-53395000D02*
X62070000Y-53395000D01*
X55795000Y-48920000D02*
X56075000Y-49200000D01*
X57875000Y-49200000D02*
X56075000Y-49200000D01*
X58075000Y-49400000D02*
X57875000Y-49200000D01*
X55795000Y-47280000D02*
X55795000Y-48920000D01*
%TO.N,Accept B*%
X64380000Y-40695000D02*
X65000000Y-40695000D01*
X62875000Y-42200000D02*
X64380000Y-40695000D01*
X59475000Y-42200000D02*
X62875000Y-42200000D01*
%TO.N,Change B*%
X59475000Y-44740000D02*
X62215000Y-44740000D01*
X62215000Y-44740000D02*
X63250000Y-45775000D01*
X63250000Y-45775000D02*
X65000000Y-45775000D01*
%TO.N,Cancel B*%
X59475000Y-47280000D02*
X61555000Y-47280000D01*
X62590000Y-48315000D02*
X65000000Y-48315000D01*
X61555000Y-47280000D02*
X62590000Y-48315000D01*
%TO.N,5 V*%
X67540000Y-31940000D02*
X66600000Y-31000000D01*
X58675000Y-31000000D02*
X56675000Y-33000000D01*
X56675000Y-33000000D02*
X56675000Y-34400000D01*
X67540000Y-33075000D02*
X67540000Y-31940000D01*
X67540000Y-33075000D02*
X67540000Y-35615000D01*
%TO.N,SDA*%
X61860000Y-35615000D02*
X65000000Y-35615000D01*
X51875000Y-36400000D02*
X61075000Y-36400000D01*
X51595000Y-34400000D02*
X51595000Y-36120000D01*
X61075000Y-36400000D02*
X61860000Y-35615000D01*
X51595000Y-36120000D02*
X51875000Y-36400000D01*
%TO.N,SCL*%
X49055000Y-34400000D02*
X49055000Y-35602081D01*
X51607919Y-38155000D02*
X65000000Y-38155000D01*
X49055000Y-35602081D02*
X51607919Y-38155000D01*
%TO.N,19*%
X53675000Y-42060559D02*
X53675000Y-51000000D01*
X58610000Y-55935000D02*
X65000000Y-55935000D01*
X53675000Y-51000000D02*
X58610000Y-55935000D01*
X47414441Y-35800000D02*
X53675000Y-42060559D01*
X44480000Y-35800000D02*
X47414441Y-35800000D01*
%TO.N,21*%
X44480000Y-41303750D02*
X44480000Y-42880000D01*
X44480000Y-42880000D02*
X51400000Y-49800000D01*
X51400000Y-49800000D02*
X51400000Y-51600000D01*
X58275000Y-58475000D02*
X65000000Y-58475000D01*
X51400000Y-51600000D02*
X58275000Y-58475000D01*
%TO.N,23*%
X58215000Y-61015000D02*
X65000000Y-61015000D01*
X44480000Y-47280000D02*
X58215000Y-61015000D01*
X44480000Y-46807500D02*
X44480000Y-47280000D01*
%TO.N,29*%
X62310000Y-68635000D02*
X65000000Y-68635000D01*
X45986250Y-52311250D02*
X62310000Y-68635000D01*
X44480000Y-52311250D02*
X45986250Y-52311250D01*
%TO.N,31*%
X48690000Y-57815000D02*
X62050000Y-71175000D01*
X62050000Y-71175000D02*
X65000000Y-71175000D01*
X44480000Y-57815000D02*
X48690000Y-57815000D01*
%TO.N,33*%
X51193750Y-63318750D02*
X61590000Y-73715000D01*
X61590000Y-73715000D02*
X65000000Y-73715000D01*
X44480000Y-63318750D02*
X51193750Y-63318750D01*
%TO.N,35*%
X54022500Y-68822500D02*
X61455000Y-76255000D01*
X44480000Y-68822500D02*
X54022500Y-68822500D01*
X61455000Y-76255000D02*
X65000000Y-76255000D01*
%TO.N,37*%
X59675000Y-76800000D02*
X61670000Y-78795000D01*
X44480000Y-74326250D02*
X46953750Y-76800000D01*
X61670000Y-78795000D02*
X65000000Y-78795000D01*
X46953750Y-76800000D02*
X59675000Y-76800000D01*
%TO.N,40*%
X62875000Y-83400000D02*
X66875000Y-83400000D01*
X59305000Y-79830000D02*
X62875000Y-83400000D01*
X66875000Y-83400000D02*
X67540000Y-82735000D01*
X44480000Y-79830000D02*
X59305000Y-79830000D01*
X67540000Y-82735000D02*
X67540000Y-81335000D01*
%TO.N,Net-(Q1-Pad2)*%
X31340000Y-67530000D02*
X33027500Y-67530000D01*
X33027500Y-67530000D02*
X34320000Y-68822500D01*
%TO.N,Net-(Q2-Pad2)*%
X33290000Y-78800000D02*
X34320000Y-79830000D01*
X31340000Y-78800000D02*
X33290000Y-78800000D01*
%TO.N,Net-(Q3-Pad2)*%
X32248750Y-50240000D02*
X34320000Y-52311250D01*
X31340000Y-50240000D02*
X32248750Y-50240000D01*
%TO.N,Net-(Q4-Pad2)*%
X31240000Y-73200000D02*
X33193750Y-73200000D01*
X33193750Y-73200000D02*
X34320000Y-74326250D01*
%TO.N,Net-(Q5-Pad2)*%
X34560000Y-86850000D02*
X34840000Y-87130000D01*
X32120000Y-86850000D02*
X34560000Y-86850000D01*
%TO.N,Net-(Q6-Pad2)*%
X31650000Y-33130000D02*
X34320000Y-35800000D01*
X31240000Y-33130000D02*
X31650000Y-33130000D01*
%TO.N,Net-(Q7-Pad2)*%
X32405000Y-55900000D02*
X34320000Y-57815000D01*
X31340000Y-55900000D02*
X32405000Y-55900000D01*
%TO.N,Net-(Q8-Pad2)*%
X31916250Y-38900000D02*
X34320000Y-41303750D01*
X31240000Y-38900000D02*
X31916250Y-38900000D01*
%TO.N,Net-(Q9-Pad2)*%
X32861250Y-61860000D02*
X34320000Y-63318750D01*
X31340000Y-61860000D02*
X32861250Y-61860000D01*
%TO.N,Net-(Q10-Pad2)*%
X31240000Y-44470000D02*
X31982500Y-44470000D01*
X31982500Y-44470000D02*
X34320000Y-46807500D01*
%TO.N,Net-(R1-Pad1)*%
X42055000Y-28000000D02*
X39400000Y-28000000D01*
X39400000Y-28000000D02*
X38800000Y-28600000D01*
%TO.N,38*%
X69870000Y-78795000D02*
X67540000Y-78795000D01*
X70275000Y-79200000D02*
X69870000Y-78795000D01*
%TD*%
M02*
